<svg width="24.000000" height="24.000000" viewBox="0 0 24 24" fill="none" xmlns="http://www.w3.org/2000/svg" xmlns:xlink="http://www.w3.org/1999/xlink">
	<desc>
			Created with Pixso.
	</desc>
	<defs>
		<linearGradient id="paint_linear_1_7597_0" x1="11.999998" y1="0.000000" x2="11.999998" y2="15.882067" gradientUnits="userSpaceOnUse">
			<stop stop-color="#FFA509"/>
			<stop offset="1.000000" stop-color="#F66C4F"/>
		</linearGradient>
	</defs>
	<path id="shopping-bag (1) 1 (Traced)" d="M14.6 0.07C12.96 0.42 11.66 1.73 11.32 3.37C11.27 3.64 11.25 4 11.25 4.72L11.25 5.71L9.33 5.71C7.51 5.71 7.42 5.71 7.27 5.8C7.19 5.85 7.08 5.96 7.03 6.05C6.94 6.19 6.93 6.29 6.93 8.07L6.93 9.93L11.66 9.93C16.8 9.93 16.76 9.93 17.26 10.2C17.8 10.49 18.22 11.09 18.32 11.71C18.36 11.92 18.37 13.65 18.36 17.22C18.35 22 18.34 22.45 18.26 22.7C18.15 23.09 18 23.42 17.82 23.7C17.74 23.84 17.67 23.96 17.67 23.97C17.67 23.99 18.68 24 19.93 24C22.33 23.99 22.43 23.99 22.87 23.76C23.13 23.63 23.55 23.23 23.7 22.97C23.77 22.86 23.86 22.65 23.91 22.49C23.99 22.22 24 21.91 24 14.2C24 6.3 23.99 6.2 23.9 6.05C23.85 5.96 23.74 5.85 23.66 5.8C23.51 5.71 23.42 5.71 21.59 5.71L19.68 5.71L19.68 4.72C19.68 4.01 19.66 3.64 19.61 3.37C19.27 1.72 17.95 0.4 16.3 0.06C15.85 -0.03 15.04 -0.03 14.6 0.07ZM16.22 1.52C16.93 1.73 17.59 2.26 17.91 2.87C18.21 3.45 18.24 3.61 18.26 4.71L18.29 5.71L15.47 5.71L12.65 5.71L12.65 4.9C12.65 4.46 12.67 3.96 12.7 3.79C12.89 2.61 13.83 1.66 15.01 1.44C15.32 1.39 15.9 1.42 16.22 1.52ZM0.33 11.43C0.25 11.48 0.14 11.59 0.09 11.68C0 11.83 0 11.92 0 17.01C-0.01 21.64 0 22.22 0.07 22.45C0.18 22.83 0.31 23.05 0.57 23.33C0.86 23.63 1.11 23.79 1.5 23.91C1.77 23.99 2.05 24 8.47 24C15.63 23.99 15.37 24 15.84 23.76C16.1 23.63 16.52 23.23 16.67 22.97C16.73 22.86 16.83 22.65 16.88 22.49C16.96 22.22 16.96 21.97 16.96 17.02C16.96 11.92 16.96 11.83 16.87 11.68C16.82 11.59 16.71 11.48 16.62 11.43C16.47 11.34 16.37 11.34 8.48 11.34C0.59 11.34 0.49 11.34 0.33 11.43ZM5.29 14.28C5.57 14.49 5.59 14.56 5.62 15.38C5.65 16 5.67 16.2 5.76 16.45C6.05 17.28 6.7 17.93 7.54 18.24C7.8 18.33 7.94 18.34 8.43 18.34C8.93 18.34 9.07 18.33 9.32 18.24C10.17 17.93 10.82 17.28 11.11 16.45C11.2 16.2 11.22 16 11.24 15.38C11.27 14.56 11.29 14.49 11.59 14.27C11.76 14.14 12.14 14.14 12.31 14.27C12.58 14.47 12.62 14.59 12.64 15.09C12.7 16.45 12.31 17.56 11.46 18.45C9.86 20.14 7.24 20.2 5.54 18.59C4.7 17.79 4.28 16.83 4.23 15.55C4.19 14.79 4.22 14.62 4.41 14.41C4.64 14.15 5.02 14.09 5.29 14.28Z" fill="url(#paint_linear_1_7597_0)" fill-opacity="1.000000" fill-rule="evenodd"/>
</svg>
