<svg width="24.000000" height="24.000000" viewBox="0 0 24 24" fill="none" xmlns="http://www.w3.org/2000/svg" xmlns:xlink="http://www.w3.org/1999/xlink">
	<desc>
			Created with Pixso.
	</desc>
	<defs/>
	<path id="shopping-bag 1 (Traced)" d="M14.6016 0.0717773C12.9717 0.420898 11.6602 1.74414 11.3242 3.37988C11.2705 3.64258 11.25 4.01025 11.25 4.72754L11.25 5.71436L9.36328 5.71436C7.56348 5.71484 7.46973 5.71875 7.32324 5.80762C7.23926 5.85889 7.12891 5.96973 7.07812 6.05371C6.98828 6.20117 6.98438 6.29492 6.98438 8.77393L6.98438 11.3408L3.73828 11.3408C0.582031 11.3413 0.488281 11.3438 0.338867 11.4346C0.254883 11.4858 0.144531 11.5962 0.09375 11.6802C0.00195312 11.8306 0 11.9272 0 17.022C0 21.9727 0.00390625 22.2236 0.0878906 22.4941C0.209961 22.8853 0.368164 23.1392 0.666992 23.4219C0.949219 23.689 1.16504 23.813 1.54395 23.9248C1.77441 23.9937 2.75684 24.0005 11.9971 24C22.9268 23.9995 22.3975 24.0107 22.8721 23.7681C23.1377 23.6318 23.5537 23.2388 23.7051 22.9795C23.7705 22.8687 23.8633 22.6504 23.9121 22.4941C23.9971 22.2207 24 21.9146 24 14.2085C24 6.30664 23.999 6.20459 23.9062 6.05371C23.8555 5.96973 23.7451 5.85889 23.6611 5.80762C23.5146 5.71875 23.4209 5.71484 21.6279 5.71436L19.749 5.71436L19.7188 5.18701C19.7021 4.89648 19.6875 4.45264 19.6875 4.2002C19.6865 2.20459 18.2686 0.473633 16.3027 0.0683594C15.8535 -0.0244141 15.043 -0.0224609 14.6016 0.0717773ZM16.2236 1.52295C16.9316 1.73096 17.5938 2.26172 17.9141 2.87744C18.2139 3.4541 18.2451 3.61426 18.2695 4.71777L18.292 5.71436L15.502 5.71436L12.7129 5.71436L12.6787 4.98926C12.6299 3.93604 12.7002 3.49561 13.0117 2.90088C13.4062 2.1499 14.1621 1.60059 15.0078 1.4502C15.3281 1.39355 15.8994 1.42773 16.2236 1.52295ZM11.2969 7.57812C11.2969 7.95166 11.3145 8.06348 11.3906 8.18799C11.666 8.64111 12.334 8.64111 12.6094 8.18799C12.6855 8.06348 12.7031 7.95166 12.7031 7.57812L12.7031 7.12109L15.5156 7.12109L18.3281 7.12109L18.3281 7.57812C18.3281 7.95166 18.3457 8.06348 18.4219 8.18799C18.6982 8.64111 19.3652 8.64111 19.6406 8.18799C19.7168 8.06348 19.7344 7.95166 19.7344 7.57812L19.7344 7.12109L21.165 7.12109L22.5947 7.12109L22.583 14.6196C22.5703 22.1104 22.5703 22.1182 22.4736 22.2476C22.4209 22.3188 22.3193 22.4204 22.248 22.4736C22.1211 22.5684 22.0605 22.5708 19.4912 22.5835L16.8633 22.5972L16.9033 22.4897C16.9248 22.4312 16.9492 20.0093 16.9561 17.1079C16.9688 11.9067 16.9678 11.8311 16.876 11.6802C16.8242 11.5962 16.7139 11.4858 16.6299 11.4346C16.4805 11.3433 16.3848 11.3413 12.4336 11.3408L8.39062 11.3408L8.39062 9.23096L8.39062 7.12109L9.84375 7.12109L11.2969 7.12109L11.2969 7.57812ZM15.5518 17.4326C15.5391 22.082 15.5381 22.1191 15.4424 22.2476C15.3896 22.3188 15.2871 22.4204 15.2168 22.4736C15.0869 22.5703 15.0801 22.5703 8.48438 22.5703C1.88867 22.5703 1.88184 22.5703 1.75195 22.4736C1.68066 22.4204 1.5791 22.3188 1.52637 22.2476C1.43066 22.1191 1.42969 22.082 1.41699 17.4326L1.4043 12.7476L8.48438 12.7476L15.5645 12.7476L15.5518 17.4326ZM4.60449 14.2476C4.30762 14.4292 4.26562 14.5635 4.26562 15.3398C4.26562 16.1133 4.33594 16.5537 4.5459 17.0957C4.95215 18.145 5.90039 19.0942 6.9502 19.5005C7.91895 19.876 9.0498 19.876 10.0186 19.5005C11.0684 19.0942 12.0166 18.145 12.4229 17.0957C12.6328 16.5537 12.7031 16.1133 12.7031 15.3398C12.7031 14.7305 12.6914 14.6279 12.6094 14.4937C12.3369 14.0459 11.666 14.0405 11.3965 14.4839C11.3252 14.6011 11.3047 14.7583 11.2842 15.3403C11.2676 15.8135 11.2324 16.1396 11.1797 16.311C10.8867 17.2632 10.165 17.978 9.21094 18.2617C8.83301 18.374 8.13574 18.374 7.75781 18.2617C6.80371 17.978 6.08203 17.2632 5.78906 16.311C5.73633 16.1396 5.70117 15.8135 5.68457 15.3403C5.66406 14.7583 5.64355 14.6011 5.57227 14.4839C5.44824 14.2793 5.21875 14.1543 4.96875 14.1543C4.84082 14.1543 4.69727 14.1909 4.60449 14.2476Z" fill="#FFFFFF" fill-opacity="1.000000" fill-rule="evenodd"/>
</svg>
