<svg width="7.199219" height="13.493652" viewBox="0 0 7.19922 13.4937" fill="none" xmlns="http://www.w3.org/2000/svg" xmlns:xlink="http://www.w3.org/1999/xlink">
	<desc>
			Created with Pixso.
	</desc>
	<defs>
		<linearGradient id="paint_linear_1_29_0" x1="3.599609" y1="0.100098" x2="3.599609" y2="13.393651" gradientUnits="userSpaceOnUse">
			<stop stop-color="#0077B6"/>
			<stop offset="1.000000" stop-color="#003661"/>
		</linearGradient>
		<linearGradient id="paint_linear_1_29_1" x1="3.599609" y1="0.100098" x2="3.599609" y2="13.393651" gradientUnits="userSpaceOnUse">
			<stop stop-color="#0077B6"/>
			<stop offset="1.000000" stop-color="#003661"/>
		</linearGradient>
	</defs>
	<path id="Vector" d="M0.255859 0.256348C0.15625 0.358887 0.0996094 0.496094 0.0996094 0.63916C0.0996094 0.782227 0.15625 0.919434 0.255859 1.02148L5.83594 6.74707L0.255859 12.4712C0.15625 12.5732 0.0996094 12.7104 0.0996094 12.8535C0.0996094 12.9966 0.15625 13.1338 0.255859 13.2358C0.304688 13.2861 0.361328 13.3257 0.425781 13.3525C0.490234 13.3799 0.558594 13.3936 0.628906 13.3936C0.699219 13.3936 0.767578 13.3799 0.832031 13.3525C0.896484 13.3257 0.953125 13.2861 1.00195 13.2358L6.9375 7.14648C7.04102 7.03955 7.09961 6.896 7.09961 6.74707C7.09961 6.59766 7.04102 6.4541 6.9375 6.34717L1.00195 0.257812C0.953125 0.208008 0.896484 0.167969 0.832031 0.141113C0.767578 0.114258 0.699219 0.100098 0.628906 0.100098C0.558594 0.100098 0.490234 0.114258 0.425781 0.141113C0.361328 0.167969 0.304688 0.208008 0.255859 0.257812L0.255859 0.256348Z" fill="url(#paint_linear_1_29_0)" fill-opacity="1.000000" fill-rule="nonzero"/>
	<path id="Vector" d="M0.0996094 0.63916C0.0996094 0.782227 0.15625 0.919434 0.255859 1.02148L5.83594 6.74707L0.255859 12.4712C0.15625 12.5732 0.0996094 12.7104 0.0996094 12.8535C0.0996094 12.9966 0.15625 13.1338 0.255859 13.2358C0.304688 13.2861 0.361328 13.3257 0.425781 13.3525C0.490234 13.3799 0.558594 13.3936 0.628906 13.3936C0.699219 13.3936 0.767578 13.3799 0.832031 13.3525C0.896484 13.3257 0.953125 13.2861 1.00195 13.2358L6.9375 7.14648C7.04102 7.03955 7.09961 6.896 7.09961 6.74707C7.09961 6.59766 7.04102 6.4541 6.9375 6.34717L1.00195 0.257812C0.953125 0.208008 0.896484 0.167969 0.832031 0.141113C0.767578 0.114258 0.699219 0.100098 0.628906 0.100098C0.558594 0.100098 0.490234 0.114258 0.425781 0.141113C0.361328 0.167969 0.304688 0.208008 0.255859 0.257812L0.255859 0.256348C0.15625 0.358887 0.0996094 0.496094 0.0996094 0.63916Z" stroke="url(#paint_linear_1_29_1)" stroke-opacity="1.000000" stroke-width="0.200000"/>
</svg>
