<svg width="67.000000" height="67.000000" viewBox="0 0 67 67" fill="none" xmlns="http://www.w3.org/2000/svg" xmlns:xlink="http://www.w3.org/1999/xlink">
	<desc>
			Created with Pixso.
	</desc>
	<defs>
		<clipPath id="clip1_5617">
			<rect width="66.666664" height="66.666664" transform="translate(-0.333374 -0.333008)" fill="white" fill-opacity="0"/>
		</clipPath>
	</defs>
	<rect width="66.666664" height="66.666664" transform="translate(-0.333374 -0.333008)" fill="#FFB12A" fill-opacity="0"/>
	<g clip-path="url(#clip1_5617)">
		<path d="M45.96 7.07L20.03 7.07C19.05 7.07 18.11 7.46 17.41 8.15C16.72 8.85 16.33 9.79 16.33 10.77L16.33 55.22C16.33 56.2 16.72 57.14 17.41 57.84C18.11 58.53 19.05 58.92 20.03 58.92L45.96 58.92C46.94 58.92 47.88 58.53 48.58 57.84C49.27 57.14 49.66 56.2 49.66 55.22L49.66 10.77C49.66 9.79 49.27 8.85 48.58 8.15C47.88 7.46 46.94 7.07 45.96 7.07ZM20.03 10.77L45.96 10.77L45.96 44.11L20.03 44.11L20.03 10.77ZM20.03 55.22L20.03 47.81L45.96 47.81L45.96 55.22L20.03 55.22Z" fill="#000000" fill-opacity="1.000000" fill-rule="nonzero"/>
		<path d="M31.14 49.66L34.85 49.66L34.85 53.37L31.14 53.37L31.14 49.66Z" fill="#000000" fill-opacity="1.000000" fill-rule="nonzero"/>
	</g>
</svg>
