<svg width="45.000000" height="61.000000" viewBox="0 0 45 61" fill="none" xmlns="http://www.w3.org/2000/svg" xmlns:xlink="http://www.w3.org/1999/xlink">
	<desc>
			Created with Pixso.
	</desc>
	<defs/>
	<path id="Vector" d="M37.74 6.58C33.78 2.62 28.49 0.27 22.9 -0.02C17.31 -0.31 11.81 1.48 7.46 5.01C3.11 8.54 0.23 13.55 -0.64 19.08C-1.51 24.61 -0.31 30.27 2.75 34.96L18.49 59.12C18.84 59.66 19.32 60.1 19.89 60.41C20.45 60.72 21.08 60.88 21.72 60.88C22.37 60.88 23 60.72 23.56 60.41C24.13 60.1 24.61 59.66 24.96 59.12L40.7 34.96C43.53 30.6 44.79 25.41 44.25 20.25C43.71 15.08 41.41 10.26 37.74 6.58ZM37.21 32.68L21.72 56.45L6.24 32.68C1.5 25.41 2.52 15.67 8.66 9.53C10.37 7.81 12.41 6.45 14.65 5.52C16.9 4.59 19.3 4.12 21.72 4.12C24.15 4.12 26.55 4.59 28.8 5.52C31.04 6.45 33.08 7.81 34.79 9.53C40.93 15.67 41.95 25.41 37.21 32.68Z" fill="#000000" fill-opacity="1.000000" fill-rule="nonzero"/>
</svg>
