<svg width="66.000000" height="66.000000" viewBox="0 0 66 66" fill="none" xmlns="http://www.w3.org/2000/svg" xmlns:xlink="http://www.w3.org/1999/xlink">
	<desc>
			Created with Pixso.
	</desc>
	<defs>
		<clipPath id="clip1_5643">
			<rect width="66.000000" height="66.000000" fill="white" fill-opacity="0"/>
		</clipPath>
	</defs>
	<rect width="66.000000" height="66.000000" fill="#FFFFFF" fill-opacity="0"/>
	<g clip-path="url(#clip1_5643)">
		<path d="M24.75 55L16.5 55C13.58 55 10.78 53.84 8.72 51.77C6.65 49.71 5.5 46.91 5.5 44L5.5 19.25C5.5 16.33 6.65 13.53 8.72 11.47C10.78 9.4 13.58 8.25 16.5 8.25L46.75 8.25C49.66 8.25 52.46 9.4 54.52 11.47C56.59 13.53 57.75 16.33 57.75 19.25L57.75 27.5M22 5.5L22 11M41.25 5.5L41.25 11M5.5 22L57.75 22M50.87 43.01L46.75 " stroke="#000000" stroke-opacity="1.000000" stroke-width="4.000000" stroke-linejoin="round"/>
		<path d="M46.75 60.5C39.15 60.5 33 54.34 33 46.75C33 39.15 39.15 33 46.75 33C54.34 33 60.5 39.15 60.5 46.75C60.5 54.34 54.34 60.5 46.75 60.5Z" stroke="#000000" stroke-opacity="1.000000" stroke-width="4.000000" stroke-linejoin="round"/>
	</g>
</svg>
