<svg width="66.000000" height="66.000000" viewBox="0 0 66 66" fill="none" xmlns="http://www.w3.org/2000/svg" xmlns:xlink="http://www.w3.org/1999/xlink">
	<desc>
			Created with Pixso.
	</desc>
	<defs>
		<clipPath id="clip1_5650">
			<rect width="66.000000" height="66.000000" fill="white" fill-opacity="0"/>
		</clipPath>
	</defs>
	<rect width="66.000000" height="66.000000" fill="#FFFFFF" fill-opacity="0"/>
	<g clip-path="url(#clip1_5650)">
		<path d="M33 61.87C27.28 61.87 21.7 60.18 16.95 57C12.2 53.83 8.5 49.32 6.32 44.04C4.13 38.77 3.56 32.96 4.67 27.36C5.79 21.76 8.54 16.62 12.58 12.58C16.62 8.54 21.76 5.79 27.36 4.67C32.96 3.56 38.77 4.13 44.05 6.32C49.32 8.5 53.83 12.2 57 16.95C60.18 21.7 61.87 27.28 61.87 33C61.87 40.65 58.83 48 53.41 53.41C48 58.83 40.65 61.87 33 61.87ZM33 8.25C28.1 8.25 23.31 9.7 19.24 12.42C15.17 15.14 12 19 10.13 23.52C8.26 28.05 7.77 33.02 8.72 37.82C9.68 42.62 12.03 47.03 15.49 50.5C18.96 53.96 23.37 56.31 28.17 57.27C32.97 58.22 37.94 57.73 42.47 55.86C46.99 53.99 50.85 50.82 53.57 46.75C56.29 42.68 57.75 37.89 57.75 33C57.75 26.43 55.14 20.14 50.5 15.49C45.85 10.85 39.56 8.25 33 8.25Z" fill="#000000" fill-opacity="1.000000" fill-rule="nonzero"/>
		<path d="M41.01 43.92L31.81 34.72C31.25 34.16 30.93 33.39 30.93 32.6L30.93 16.5C30.93 15.36 31.86 14.43 33 14.43C34.13 14.43 35.06 15.36 35.06 16.5L35.06 31.3C35.06 31.83 35.27 32.34 35.64 32.71L43.92 41.01C44.72 41.81 44.72 43.11 43.92 43.92C43.11 44.72 41.81 44.72 41.01 43.92Z" fill="#000000" fill-opacity="1.000000" fill-rule="nonzero"/>
	</g>
</svg>
