<svg width="28.799805" height="21.600098" viewBox="0 0 28.7998 21.6001" fill="none" xmlns="http://www.w3.org/2000/svg" xmlns:xlink="http://www.w3.org/1999/xlink">
	<desc>
			Created with Pixso.
	</desc>
	<defs/>
	<path id="Vector" d="M0 4.94995C0 3.63721 0.521484 2.37817 1.4502 1.44971C2.37793 0.521484 3.63672 0 4.9502 0L23.8496 0C25.1631 0 26.4219 0.521484 27.3506 1.44971C28.2783 2.37817 28.7998 3.63721 28.7998 4.94995L28.7998 16.6499C28.7998 17.9629 28.2783 19.2219 27.3506 20.1501C26.4219 21.0784 25.1631 21.6001 23.8496 21.6001L4.9502 21.6001C3.63672 21.6001 2.37793 21.0784 1.4502 20.1501C0.521484 19.2219 0 17.9629 0 16.6499L0 4.94995ZM4.9502 1.80005C4.11426 1.80005 3.31348 2.13184 2.72266 2.72266C2.13184 3.31323 1.7998 4.1145 1.7998 4.94995L1.7998 16.6499C1.7998 18.3889 3.21094 19.8 4.9502 19.8L23.8496 19.8C24.6855 19.8 25.4863 19.468 26.0771 18.8774C26.668 18.2866 27 17.4854 27 16.6499L27 4.94995C27 4.1145 26.668 3.31323 26.0771 2.72266C25.4863 2.13184 24.6855 1.80005 23.8496 1.80005L4.9502 1.80005ZM16.2002 4.5C16.2002 4.26123 16.2949 4.03247 16.4639 3.86353C16.6328 3.69482 16.8613 3.6001 17.0996 3.6001L20.7002 3.6001C20.9385 3.6001 21.168 3.69482 21.3359 3.86353C21.5049 4.03247 21.5996 4.26123 21.5996 4.5L21.5996 8.1001C21.5996 8.33862 21.5049 8.56763 21.3359 8.73633C21.168 8.90527 20.9385 9 20.7002 9C20.4609 9 20.2324 8.90527 20.0635 8.73633C19.8945 8.56763 19.7998 8.33862 19.7998 8.1001L19.7998 6.67261L16.8369 9.63721C16.668 9.80615 16.4395 9.90112 16.2002 9.90112C15.9609 9.90112 15.7314 9.80615 15.5625 9.63721C15.3936 9.46826 15.2988 9.23901 15.2988 9C15.2988 8.76099 15.3936 8.53174 15.5625 8.36279L18.5273 5.3999L17.0996 5.3999C16.8613 5.3999 16.6328 5.30518 16.4639 5.13647C16.2949 4.96753 16.2002 4.73877 16.2002 4.5ZM11.9629 11.9629C12.1318 11.7937 12.3613 11.699 12.5996 11.699C12.8389 11.699 13.0684 11.7937 13.2373 11.9629C13.4062 12.1318 13.501 12.3611 13.501 12.6001C13.501 12.8391 13.4062 13.0681 13.2373 13.2373L10.2725 16.2L11.7002 16.2C11.9385 16.2 12.168 16.2949 12.3359 16.4636C12.5049 16.6323 12.5996 16.8613 12.5996 17.1001C12.5996 17.3386 12.5049 17.5676 12.3359 17.7363C12.168 17.9053 11.9385 18 11.7002 18L8.09961 18C7.86133 18 7.63281 17.9053 7.46387 17.7363C7.29492 17.5676 7.2002 17.3386 7.2002 17.1001L7.2002 13.5C7.2002 13.2612 7.29492 13.0325 7.46387 12.8635C7.63281 12.6948 7.86133 12.6001 8.09961 12.6001C8.33887 12.6001 8.56738 12.6948 8.73633 12.8635C8.90527 13.0325 9 13.2612 9 13.5L9 14.9275L11.9629 11.9629Z" fill="#000000" fill-opacity="1.000000" fill-rule="nonzero"/>
</svg>
