<svg width="80.000000" height="80.000000" viewBox="0 0 80 80" fill="none" xmlns="http://www.w3.org/2000/svg" xmlns:xlink="http://www.w3.org/1999/xlink">
	<desc>
			Created with Pixso.
	</desc>
	<defs/>
	<path id="04012019-07 1 (Traced)" d="M37.5859 0.0117188C32.4863 0.360474 27.8789 1.51709 23.3164 3.59314C22.1973 4.10181 21.9922 4.20544 20.8184 4.849C16.1016 7.43433 12.0098 10.8815 8.66602 15.0859C3.48633 21.6025 0.509766 29.4514 0.03125 37.8606C-0.0292969 38.9424 0.00390625 42.0767 0.0839844 42.9232C0.365234 45.8445 0.585938 47.2607 1.08984 49.3583C1.97461 53.0403 3.39453 56.6129 5.26562 59.8726C6.13281 61.3834 6.9043 62.5682 7.00586 62.548C7.10156 62.5288 12.3184 57.3652 12.3184 57.2889C12.3184 57.2499 12.1113 56.8661 11.8613 56.4362C11.0488 55.0485 10.3379 53.5961 9.70312 52.0299C9.12305 50.5945 8.45117 48.3833 8.125 46.8302C6.41602 38.684 7.8125 30.2656 12.0371 23.2322C15.2324 17.9122 19.877 13.6061 25.4121 10.8323C27.2559 9.90796 28.9297 9.24878 30.8672 8.68262C32.7539 8.13184 34.4844 7.79175 36.6387 7.54834C37.6348 7.43591 38.082 7.4187 39.998 7.4187C41.916 7.4187 42.3613 7.43591 43.3594 7.54834C45.5137 7.79175 47.2441 8.13184 49.1309 8.68262C51.0684 9.24878 52.7402 9.90796 54.5859 10.8323C59.0918 13.0909 63.0078 16.3573 66.0527 20.4006C70.5547 26.3783 72.8789 33.8293 72.5605 41.257C72.4648 43.4905 72.1172 46.0039 71.6621 47.7495C70.7949 51.076 69.709 53.7556 68.1484 56.4193C67.8906 56.8585 67.6797 57.2499 67.6797 57.2889C67.6797 57.3652 72.8945 62.5288 72.9922 62.548C73.1777 62.5848 74.9414 59.6191 75.918 57.6318C78.3203 52.7379 79.6523 47.6084 79.9688 42.0326C80.0293 40.968 79.9961 37.9608 79.9121 37.0341C79.7305 35.0131 79.6348 34.2861 79.3281 32.61C77.8652 24.6196 73.8242 17.0522 67.9766 11.36C61.9238 5.46863 54.3984 1.70874 46.0566 0.410034C44.0332 0.0948486 42.9668 0.019043 40.3438 0.00402832C39.002 -0.00354004 37.7598 -0.00012207 37.5859 0.0117188ZM33.8691 21.7651L27.7656 27.8698L27.7656 24.7086L27.7656 21.5476L27.4082 21.3539C26.3965 20.808 25.4785 20.3094 24.7871 19.931C24.3652 19.6995 24.0098 19.51 23.998 19.51C23.9863 19.51 23.6523 19.3291 23.2578 19.1079C22.8633 18.8867 22.5078 18.7064 22.4688 18.7073C22.4297 18.7081 22.2676 18.9161 22.1094 19.1693C21.9512 19.4226 21.668 19.8679 21.4785 20.1591C21.2891 20.4503 20.9277 21.0116 20.6758 21.4064C20.4258 21.8013 20.0625 22.3699 19.8691 22.6702C19.6758 22.9703 19.4121 23.384 19.2812 23.5894C19.1504 23.7948 18.7852 24.3633 18.4688 24.8528C18.1543 25.3422 17.9062 25.7527 17.9199 25.7651C17.9316 25.7776 18.5957 25.4258 19.3945 24.9834C20.1934 24.541 20.9746 24.1079 21.1328 24.021C21.291 23.934 21.5527 23.7883 21.7148 23.6974C21.877 23.6064 22.0254 23.532 22.0449 23.532C22.0645 23.532 22.0801 27.171 22.0801 31.6188L22.0781 39.7057L21.9102 39.3035C21.8164 39.0823 21.5449 38.3971 21.3047 37.7809C20.541 35.8207 20.3945 35.4553 20.3457 35.3981C20.3164 35.3647 18.6172 37.0227 16.1348 39.506C12.2871 43.3568 11.9727 43.6842 11.9727 43.8617C11.9727 44.1842 12.2578 45.9169 12.4648 46.8589C12.7852 48.3145 13.1504 49.5286 13.7031 50.9863C13.9863 51.7275 14.5566 53.0066 14.6074 53.0066C14.627 53.0066 20.3496 47.2992 27.3223 40.3234L39.998 27.6401L52.6875 40.3353C59.668 47.3176 65.3906 53.0172 65.4082 53.0007C65.4609 52.9479 65.9043 51.9606 66.1426 51.3691C66.7109 49.9514 67.1719 48.4717 67.5098 46.9739C67.7031 46.1178 68.0234 44.1869 68.0234 43.8712C68.0234 43.6801 67.3281 42.974 54.0254 29.6653C46.3262 21.9626 40.0137 15.6605 39.998 15.6605C39.9824 15.6605 37.2246 18.4076 33.8691 21.7651ZM37.5469 38.1255C37.0176 38.264 36.3848 38.542 36.0117 38.7992C35.334 39.2673 34.6074 40.1216 34.3086 40.8016C34.1133 41.248 33.9121 42.0815 33.9121 42.4462L33.9121 42.7795L36.2949 42.7795L38.6777 42.7795L38.6777 40.3951L38.6777 38.0107L38.3184 38.0139C38.1211 38.0156 37.7734 38.0658 37.5469 38.1255ZM41.3203 40.3951L41.3203 42.7795L43.7031 42.7795L46.0859 42.7795L46.0859 42.4462C46.0859 42.0815 45.8848 41.248 45.6895 40.8016C45.3906 40.1216 44.6641 39.2673 43.9844 38.7992C43.3672 38.3729 42.2969 38.0107 41.6543 38.0107L41.3203 38.0107L41.3203 40.3951ZM33.9121 47.2036L33.9121 49.6168L36.2949 49.6168L38.6777 49.6168L38.6777 47.2036L38.6777 44.7905L36.2949 44.7905L33.9121 44.7905L33.9121 47.2036ZM41.3203 47.2036L41.3203 49.6168L43.7031 49.6168L46.0859 49.6168L46.0859 47.2036L46.0859 44.7905L43.7031 44.7905L41.3203 44.7905L41.3203 47.2036ZM49.3906 51.6414C49.375 51.7129 49.3555 51.8618 49.3457 51.9724L49.3301 52.1736L47.6543 52.2023C46.6523 52.2195 45.9531 52.2542 45.9199 52.2885C45.8887 52.3201 45.8555 52.4882 45.8457 52.6619L45.8281 52.9779L40.2578 53.0107C34.3711 53.0453 34.4629 53.0413 33.25 53.3199C31.9688 53.6144 30.2812 54.3671 29.0234 55.2056C27.2285 56.4014 25.3184 58.3315 23.9922 60.2886C23.75 60.6438 23.5664 60.9468 23.582 60.9619C23.5957 60.9771 23.9668 60.8101 24.4023 60.5908C26.5195 59.528 28.9629 58.7853 31.0059 58.5841C32.8027 58.4072 34.9121 58.625 35.6621 59.0651C36.6504 59.6438 37.2578 61.2562 37.4102 63.7035C37.4648 64.5602 37.5293 64.7496 37.8242 64.9241L37.9883 65.0214L37.9883 68.7894L37.9883 72.5574L37.4863 72.5184C30.8184 72.0025 24.5332 69.476 19.3242 65.2158C17.8809 64.0361 16.4336 62.6118 15.1289 61.087L14.5938 60.463L14.1328 60.9435C9.49219 65.7695 9.50391 65.7574 9.50391 65.8485C9.50391 65.932 10.707 67.2527 11.6289 68.1808C15.1172 71.6942 18.9336 74.3525 23.5117 76.4588C30.2793 79.5723 38.3535 80.6984 45.8574 79.5751C53.752 78.3932 60.8633 75.0303 66.8477 69.6505C68.0527 68.5656 70.4941 66.0089 70.4941 65.8298C70.4941 65.7968 70.1133 65.3732 69.6465 64.8885C68.6367 63.8386 66.5742 61.6859 65.8926 60.9717L65.4043 60.462L64.8711 61.0867C60.3574 66.3625 54.4883 70.0098 47.8652 71.6539C46.6543 71.954 45.1543 72.2306 43.9902 72.3679C43.7051 72.4014 43.3887 72.4396 43.2871 72.4528L43.0996 72.4769L43.0996 68.7449L43.0996 65.013L43.2871 64.923C43.5586 64.7916 43.6934 64.5795 43.7129 64.2432C43.834 62.313 43.9355 61.6277 44.2246 60.7751C44.4941 59.9839 44.9668 59.243 45.418 58.8975C45.582 58.7732 45.6406 58.7557 45.7344 58.8055C45.7969 58.8392 45.8574 58.925 45.8672 58.9963L45.8848 59.1256L47.5449 59.141C48.6543 59.1511 49.2324 59.1774 49.2832 59.2197C49.3281 59.2578 49.3594 59.403 49.3594 59.5808C49.3594 59.7445 49.3906 59.9094 49.4277 59.9473C49.5352 60.0542 53.6855 60.0454 53.7754 59.9381C53.8223 59.8812 53.8359 58.7255 53.8262 55.7007L53.8105 51.5415L51.6152 51.5265L49.4199 51.5115L49.3906 51.6414Z" fill="#FFFFFF" fill-opacity="1.000000" fill-rule="evenodd"/>
</svg>
