<svg width="18.000000" height="21.727905" viewBox="0 0 18 21.7279" fill="none" xmlns="http://www.w3.org/2000/svg" xmlns:xlink="http://www.w3.org/1999/xlink">
	<desc>
			Created with Pixso.
	</desc>
	<defs/>
	<path id="Vector" d="M9 18.8999L13.9492 13.95C14.9297 12.9709 15.5957 11.7236 15.8652 10.3658C16.1348 9.00793 15.9961 7.60052 15.4668 6.32147C14.9375 5.04242 14.041 3.94922 12.8887 3.18011C11.7383 2.41095 10.3848 2.00043 9 2.00043C7.61523 2.00043 6.26172 2.41095 5.11133 3.18011C3.95898 3.94922 3.0625 5.04242 2.5332 6.32147C2.00391 7.60052 1.86523 9.00793 2.13477 10.3658C2.4043 11.7236 3.07031 12.9709 4.05078 13.95L9 18.8999ZM9 21.7279L2.63672 15.3639C1.37695 14.1052 0.519531 12.5016 0.173828 10.7558C-0.173828 9.00995 0.00390625 7.20038 0.685547 5.55585C1.36719 3.91132 2.51953 2.50568 4 1.51678C5.48047 0.527832 7.2207 0 9 0C10.7793 0 12.5195 0.527832 14 1.51678C15.4805 2.50568 16.6328 3.91132 17.3145 5.55585C17.9961 7.20038 18.1738 9.00995 17.8262 10.7558C17.4805 12.5016 16.623 14.1052 15.3633 15.3639L9 21.7279ZM9 10.9999C9.53125 10.9999 10.0391 10.7892 10.4141 10.4141C10.7891 10.0391 11 9.53033 11 8.99994C11 8.46948 10.7891 7.96075 10.4141 7.58569C10.0391 7.21063 9.53125 6.99994 9 6.99994C8.46875 6.99994 7.96094 7.21063 7.58594 7.58569C7.21094 7.96075 7 8.46948 7 8.99994C7 9.53033 7.21094 10.0391 7.58594 10.4141C7.96094 10.7892 8.46875 10.9999 9 10.9999ZM9 12.9999C7.93945 12.9999 6.92188 12.5785 6.17188 11.8284C5.42188 11.0782 5 10.0608 5 8.99994C5 7.93903 5.42188 6.92163 6.17188 6.17151C6.92188 5.42133 7.93945 4.99994 9 4.99994C10.0605 4.99994 11.0781 5.42133 11.8281 6.17151C12.5781 6.92163 13 7.93903 13 8.99994C13 10.0608 12.5781 11.0782 11.8281 11.8284C11.0781 12.5785 10.0605 12.9999 9 12.9999Z" fill="#FFFFFF" fill-opacity="1.000000" fill-rule="nonzero"/>
</svg>
