<svg width="18.000000" height="18.000000" viewBox="0 0 18 18" fill="none" xmlns="http://www.w3.org/2000/svg" xmlns:xlink="http://www.w3.org/1999/xlink">
	<desc>
			Created with Pixso.
	</desc>
	<defs/>
	<path id="Vector" d="M6.36523 7.68201C7.30469 9.33051 8.66992 10.6957 10.3184 11.634L11.2012 10.396C11.3438 10.197 11.5547 10.0569 11.793 10.0023C12.0312 9.94781 12.2812 9.98254 12.4961 10.1C13.9102 10.8729 15.4727 11.3378 17.0781 11.464C17.3301 11.4839 17.5645 11.5975 17.7344 11.7823C17.9043 11.9671 18 12.2094 18 12.461L18 16.923C18 17.1706 17.9082 17.4094 17.7422 17.5932C17.5762 17.777 17.3477 17.8928 17.1016 17.918C16.5723 17.973 16.0371 18 15.5 18C6.93945 18 0 11.06 0 2.5C0 1.96204 0.0273438 1.42798 0.0820312 0.897949C0.107422 0.651733 0.222656 0.423462 0.40625 0.25769C0.589844 0.0917969 0.830078 0 1.07617 0L5.53906 0C5.79102 0 6.0332 0.0947266 6.2168 0.265503C6.40234 0.436157 6.51562 0.670166 6.53516 0.921021C6.66211 2.52783 7.12695 4.08972 7.90039 5.50403C8.01758 5.71857 8.05273 5.96875 7.99805 6.20721C7.94336 6.44568 7.80273 6.65582 7.60352 6.79797L6.36523 7.68201ZM3.84375 7.02502L5.74414 5.66803C5.20508 4.50415 4.83594 3.2688 4.64648 2L2.00977 2C2.00391 2.16602 2.00195 2.33301 2.00195 2.5C2 9.95599 8.04492 16 15.5 16C15.668 16 15.834 15.997 16 15.99L16 13.353C14.7305 13.1647 13.4961 12.7952 12.332 12.256L10.9746 14.156C10.4277 13.9437 9.89844 13.6931 9.38672 13.406L9.32812 13.373C7.36719 12.2567 5.74414 10.6324 4.62695 8.67102L4.59375 8.61298C4.30664 8.10199 4.05664 7.57135 3.84375 7.02502Z" fill="#FFFFFF" fill-opacity="1.000000" fill-rule="nonzero"/>
</svg>
