<svg width="20.000000" height="20.000000" viewBox="0 0 20 20" fill="none" xmlns="http://www.w3.org/2000/svg" xmlns:xlink="http://www.w3.org/1999/xlink">
	<desc>
			Created with Pixso.
	</desc>
	<defs/>
	<path id="Vector" d="M10 18C12.1211 18 14.1562 17.1572 15.6562 15.6569C17.1562 14.1566 18 12.1217 18 10C18 7.8783 17.1562 5.84344 15.6562 4.34314C14.1562 2.84283 12.1211 2 10 2C7.87891 2 5.84375 2.84283 4.34375 4.34314C2.84375 5.84344 2 7.8783 2 10C2 12.1217 2.84375 14.1566 4.34375 15.6569C5.84375 17.1572 7.87891 18 10 18ZM10 20C4.47656 20 0 15.523 0 10C0 4.47699 4.47656 0 10 0C15.5234 0 20 4.47699 20 10C20 15.523 15.5234 20 10 20ZM6.89062 11.17L4.39258 10.391C3.85156 10.226 3.84961 9.854 4.51367 9.58698L14.2461 5.82703C14.8105 5.59698 15.1309 5.888 14.9473 6.617L13.291 14.437C13.1758 14.994 12.8398 15.127 12.375 14.87L9.82422 12.982L8.63477 14.13C8.51367 14.248 8.41406 14.349 8.22656 14.374C8.03906 14.4 7.88477 14.344 7.77148 14.034L6.90234 11.163L6.89062 11.171L6.89062 11.17Z" fill="#FFFFFF" fill-opacity="1.000000" fill-rule="nonzero"/>
</svg>
