<svg width="20.000000" height="20.000000" viewBox="0 0 20 20" fill="none" xmlns="http://www.w3.org/2000/svg" xmlns:xlink="http://www.w3.org/1999/xlink">
	<desc>
			Created with Pixso.
	</desc>
	<defs/>
	<path id="Vector" d="M10 7C9.20508 7 8.44141 7.31604 7.87891 7.87866C7.31641 8.44128 7 9.20435 7 10C7 10.7957 7.31641 11.5587 7.87891 12.1213C8.44141 12.684 9.20508 13 10 13C10.7949 13 11.5586 12.684 12.1211 12.1213C12.6836 11.5587 13 10.7957 13 10C13 9.20435 12.6836 8.44128 12.1211 7.87866C11.5586 7.31604 10.7949 7 10 7ZM10 5C11.3262 5 12.5977 5.52679 13.5352 6.46448C14.4727 7.40216 15 8.67389 15 10C15 11.3261 14.4727 12.5978 13.5352 13.5355C12.5977 14.4732 11.3262 15 10 15C8.67383 15 7.40234 14.4732 6.46484 13.5355C5.52734 12.5978 5 11.3261 5 10C5 8.67389 5.52734 7.40216 6.46484 6.46448C7.40234 5.52679 8.67383 5 10 5ZM16.5 4.75C16.5 5.08154 16.3691 5.39948 16.1348 5.63391C15.9004 5.86829 15.582 6 15.25 6C14.918 6 14.5996 5.86829 14.3652 5.63391C14.1309 5.39948 14 5.08154 14 4.75C14 4.41846 14.1309 4.10052 14.3652 3.86609C14.5996 3.63171 14.918 3.5 15.25 3.5C15.582 3.5 15.9004 3.63171 16.1348 3.86609C16.3691 4.10052 16.5 4.41846 16.5 4.75ZM10 2C7.52539 2 7.12109 2.00702 5.9707 2.05798C5.1875 2.09497 4.66016 2.20001 4.17383 2.39001C3.73828 2.55798 3.42578 2.75897 3.09375 3.09302C2.7793 3.39539 2.53906 3.76459 2.38867 4.17297C2.19922 4.66302 2.09375 5.18799 2.05859 5.97101C2.00586 7.07501 2 7.461 2 10C2 12.474 2.00781 12.878 2.05859 14.029C2.0957 14.812 2.19922 15.339 2.38867 15.826C2.55859 16.261 2.75977 16.574 3.0918 16.906C3.42773 17.242 3.74023 17.443 4.17188 17.609C4.66406 17.8 5.19141 17.906 5.9707 17.942C7.07422 17.994 7.46094 18 10 18C12.4746 18 12.8789 17.993 14.0293 17.942C14.8105 17.905 15.3379 17.8 15.8262 17.611C16.2598 17.442 16.5742 17.241 16.9062 16.909C17.2422 16.572 17.4434 16.259 17.6094 15.829C17.8008 15.336 17.9062 14.809 17.9414 14.029C17.9941 12.925 18 12.539 18 10C18 7.526 17.9922 7.12201 17.9414 5.97101C17.9043 5.18903 17.8008 4.66101 17.6094 4.17297C17.459 3.76501 17.2188 3.39594 16.9062 3.09302C16.6055 2.77985 16.2363 2.53918 15.8262 2.38898C15.3379 2.19897 14.8105 2.09399 14.0293 2.05798C12.9258 2.00598 12.5391 2 10 2ZM10 0C12.7168 0 13.0566 0.0100098 14.1211 0.0599976C15.1875 0.109985 15.9121 0.276978 16.5508 0.525024C17.2109 0.778992 17.7656 1.12299 18.3223 1.67798C18.8301 2.17792 19.2246 2.78259 19.4746 3.45001C19.7227 4.08698 19.8906 4.81299 19.9395 5.87799C19.9863 6.94397 20 7.28302 20 10C20 12.717 19.9902 13.056 19.9395 14.122C19.8906 15.187 19.7227 15.912 19.4746 16.55C19.2246 17.2178 18.832 17.8226 18.3223 18.322C17.8223 18.8303 17.2168 19.2238 16.5508 19.475C15.9121 19.722 15.1875 19.89 14.1211 19.94C13.0566 19.987 12.7168 20 10 20C7.2832 20 6.94336 19.99 5.87891 19.94C4.8125 19.89 4.08789 19.722 3.44922 19.475C2.7832 19.2245 2.17773 18.8309 1.67773 18.322C1.16992 17.8222 0.775391 17.2175 0.525391 16.55C0.277344 15.913 0.109375 15.187 0.0605469 14.122C0.0136719 13.056 0 12.717 0 10C0 7.28302 0.00976562 6.94397 0.0605469 5.87799C0.109375 4.81201 0.277344 4.08801 0.525391 3.45001C0.775391 2.78217 1.16797 2.17731 1.67773 1.67798C2.17773 1.16925 2.7832 0.775757 3.44922 0.525024C4.08789 0.276978 4.8125 0.109985 5.87891 0.0599976C6.94336 0.0130005 7.2832 0 10 0Z" fill="#FFFFFF" fill-opacity="1.000000" fill-rule="nonzero"/>
</svg>
