<svg width="20.000000" height="20.000000" viewBox="0 0 20 20" fill="none" xmlns="http://www.w3.org/2000/svg" xmlns:xlink="http://www.w3.org/1999/xlink">
	<desc>
			Created with Pixso.
	</desc>
	<defs/>
	<path id="Vector" d="M11 17.938C13.0176 17.6813 14.8613 16.6661 16.1562 15.0988C17.4531 13.5314 18.1035 11.5295 17.9746 9.5C17.8477 7.4704 16.9531 5.56549 15.4707 4.17236C13.9902 2.7793 12.0332 2.0025 10 2C7.96484 1.99847 6.00391 2.77332 4.51953 4.16669C3.03516 5.56 2.13672 7.46698 2.00977 9.49902C1.88281 11.5311 2.53516 13.5353 3.83398 15.1033C5.13281 16.6713 6.98047 17.685 9 17.938L9 12L7 12L7 10L9 10L9 8.34601C9 7.00897 9.14062 6.52399 9.40039 6.03497C9.65625 5.55121 10.0527 5.1557 10.5352 4.90002C10.918 4.69501 11.3926 4.57202 12.2227 4.51898C12.5527 4.49799 12.9785 4.52399 13.502 4.599L13.502 6.49902L13 6.49902C12.082 6.49902 11.7031 6.54199 11.4785 6.66302C11.3438 6.73236 11.2324 6.84216 11.1641 6.97699C11.0449 7.203 11 7.427 11 8.34497L11 10L13.5 10L13 12L11 12L11 17.938ZM10 20C4.47656 20 0 15.523 0 10C0 4.47699 4.47656 0 10 0C15.5234 0 20 4.47699 20 10C20 15.523 15.5234 20 10 20Z" fill="#FFFFFF" fill-opacity="1.000000" fill-rule="nonzero"/>
</svg>
