<svg width="18.000000" height="18.000000" viewBox="0 0 18 18" fill="none" xmlns="http://www.w3.org/2000/svg" xmlns:xlink="http://www.w3.org/1999/xlink">
	<desc>
			Created with Pixso.
	</desc>
	<defs/>
	<path id="Vector" d="M9 18C4.0293 18 0 13.9707 0 9C0 4.0293 4.0293 0 9 0C13.9707 0 18 4.0293 18 9C18 13.9707 13.9707 18 9 18ZM6.93945 15.9003C6.05078 14.0169 5.53711 11.9792 5.42383 9.90002L1.85547 9.90002C2.03125 11.285 2.60547 12.5894 3.50781 13.6545C4.41016 14.7197 5.60156 15.4999 6.93945 15.9003ZM7.22656 9.90002C7.36328 12.0951 7.99023 14.157 9 15.9768C10.0371 14.1089 10.6426 12.0325 10.7734 9.90002L7.22656 9.90002ZM16.1445 9.90002L12.5762 9.90002C12.4629 11.9792 11.9492 14.0169 11.0605 15.9003C12.3984 15.4999 13.5898 14.7197 14.4922 13.6545C15.3945 12.5894 15.9688 11.285 16.1445 9.90002ZM1.85547 8.09998L5.42383 8.09998C5.53711 6.02081 6.05078 3.98309 6.93945 2.09967C5.60156 2.50012 4.41016 3.28027 3.50781 4.34546C2.60547 5.41064 2.03125 6.71497 1.85547 8.09998ZM7.22852 8.09998L10.7715 8.09998C10.6426 5.96753 10.0371 3.89117 9 2.02319C7.96289 3.89111 7.35742 5.96747 7.22656 8.09998L7.22852 8.09998ZM11.0605 2.09967C11.9492 3.98309 12.4629 6.02081 12.5762 8.09998L16.1445 8.09998C15.9688 6.71497 15.3945 5.41064 14.4922 4.34546C13.5898 3.28027 12.3984 2.50012 11.0605 2.09967Z" fill="#FFFFFF" fill-opacity="1.000000" fill-rule="nonzero"/>
</svg>
