<svg width="24.000000" height="20.399414" viewBox="0 0 24 20.3994" fill="none" xmlns="http://www.w3.org/2000/svg" xmlns:xlink="http://www.w3.org/1999/xlink">
	<desc>
			Created with Pixso.
	</desc>
	<defs/>
	<path id="Vector" d="M14.0039 8.44434C13.9092 8.44385 13.8174 8.48071 13.75 8.54736C13.6816 8.61377 13.6426 8.70459 13.6416 8.79956L13.6416 11.4541C13.6426 11.5493 13.6816 11.6401 13.75 11.7068C13.8184 11.7732 13.9102 11.8101 14.0049 11.8091L22.001 11.8091C22.0957 11.8101 22.1875 11.7732 22.2559 11.7068C22.3242 11.6401 22.3633 11.5493 22.3643 11.4541L22.3643 8.79956C22.3633 8.70435 22.3242 8.61353 22.2559 8.54688C22.1875 8.48022 22.0957 8.44336 22.001 8.44434L14.0049 8.44434L14.0039 8.44434ZM18.9072 0.0012207C20.0137 0.0539551 20.8096 0.272461 21.3135 0.735596C21.8115 1.19409 22.0664 1.85767 22.1172 2.73608L22.1172 5.25244C22.1143 5.4668 22.0273 5.67114 21.874 5.82104C21.7207 5.97095 21.5146 6.05396 21.2998 6.05151C21.1934 6.05298 21.0879 6.0332 20.9902 5.99365C20.8916 5.95435 20.8008 5.89575 20.7256 5.82153C20.6494 5.74731 20.5889 5.65894 20.5469 5.56128C20.5049 5.46362 20.4824 5.35864 20.4814 5.25244L20.4824 2.78149C20.4561 2.32568 20.3477 2.04248 20.1914 1.89844C20.04 1.75928 19.5791 1.63452 18.8672 1.59839L3.17676 1.59839C2.53223 1.62231 2.11328 1.74487 1.91016 1.9187C1.75488 2.052 1.63672 2.41919 1.63574 3.05396L1.63184 17.178C1.69238 17.7947 1.82715 18.2063 2.00195 18.4116C2.13379 18.5676 2.54297 18.7236 3.14551 18.8003L18.8848 18.8003C19.6211 18.8147 20.0557 18.7043 20.2021 18.5569C20.3643 18.3923 20.4814 17.9604 20.4814 17.2537L20.4814 14.7996C20.4814 14.3591 20.8477 14.0005 21.2998 14.0005C21.751 14.0005 22.1172 14.3591 22.1172 14.7996L22.1172 17.2537C22.1172 18.3335 21.8965 19.1411 21.3789 19.6655C20.8467 20.2056 19.999 20.4216 18.8672 20.3977L3.04785 20.394C1.97168 20.2693 1.2002 19.9739 0.740234 19.4304C0.324219 18.9385 0.0927734 18.2363 0 17.2549L0 3.05273C0.00195312 2.00171 0.254883 1.21069 0.833008 0.716309C1.36328 0.260498 2.12891 0.0383301 3.14551 0L18.9072 0L18.9072 0.0012207ZM22.001 6.84595C23.1045 6.84595 24 7.7207 24 8.79956L24 11.4541C24 12.5327 23.1045 13.4077 22.001 13.4077L14.0049 13.4077C12.9014 13.4077 12.0059 12.5315 12.0059 11.4541L12.0059 8.79956C12.0059 7.7207 12.9014 6.84595 14.0049 6.84595L22.001 6.84595ZM16.0049 9.17407C15.4521 9.17407 15.0049 9.60596 15.0049 10.1377C15.0049 10.6704 15.4521 11.1013 16.0049 11.1013C16.5566 11.1013 17.0039 10.6692 17.0039 10.1377C17.0039 9.60474 16.5566 9.17285 16.0049 9.17285L16.0049 9.17407Z" fill="#FFFFFF" fill-opacity="1.000000" fill-rule="nonzero"/>
</svg>
