<svg width="24.000000" height="24.000000" viewBox="0 0 24 24" fill="none" xmlns="http://www.w3.org/2000/svg" xmlns:xlink="http://www.w3.org/1999/xlink">
	<desc>
			Created with Pixso.
	</desc>
	<defs/>
	<path id="shopping-bag 1 (Traced)" d="M14.6016 0.0717773C12.9717 0.420898 11.6606 1.74414 11.3243 3.37988C11.2703 3.64258 11.25 4.01025 11.25 4.72754L11.25 5.71436L9.36328 5.71436C7.56323 5.71484 7.46948 5.71875 7.32373 5.80762C7.23962 5.85889 7.12903 5.96973 7.07776 6.05371C6.98792 6.20117 6.98462 6.29492 6.9845 8.77393L6.98425 11.3408L3.73816 11.3408C0.581665 11.3413 0.487793 11.3438 0.339233 11.4346C0.255249 11.4858 0.144531 11.5962 0.0933838 11.6802C0.00183105 11.8306 0.00012207 11.9272 0 17.022C-0.00012207 21.9727 0.00390625 22.2236 0.0881348 22.4941C0.209717 22.8853 0.368408 23.1392 0.666748 23.4219C0.949219 23.689 1.16504 23.813 1.54358 23.9248C1.77417 23.9937 2.75647 24.0005 11.9968 24C22.9266 23.9995 22.3972 24.0107 22.8717 23.7681C23.1377 23.6318 23.5537 23.2388 23.7054 22.9795C23.7704 22.8687 23.8633 22.6504 23.9119 22.4941C23.9969 22.2207 24.0002 21.9146 24 14.2085C23.9999 6.30664 23.9987 6.20459 23.9066 6.05371C23.8555 5.96973 23.7448 5.85889 23.6608 5.80762C23.515 5.71875 23.4213 5.71484 21.6284 5.71436L19.7488 5.71436L19.7184 5.18701C19.7018 4.89648 19.688 4.45264 19.6879 4.2002C19.6869 2.20459 18.2689 0.473633 16.3029 0.0683594C15.8533 -0.0244141 15.0428 -0.0224609 14.6016 0.0717773ZM16.2239 1.52295C16.9314 1.73096 17.5935 2.26172 17.9141 2.87744C18.2139 3.4541 18.2449 3.61426 18.2695 4.71777L18.2917 5.71436L15.5024 5.71436L12.713 5.71436L12.6791 4.98926C12.6296 3.93604 12.7 3.49561 13.0122 2.90088C13.4066 2.1499 14.1617 1.60059 15.0074 1.4502C15.3276 1.39355 15.8993 1.42773 16.2239 1.52295ZM11.297 7.57812C11.2972 7.95166 11.3142 8.06348 11.3904 8.18799C11.6664 8.64111 12.3336 8.64111 12.6096 8.18799C12.6858 8.06348 12.7028 7.95166 12.703 7.57812L12.7031 7.12109L15.5156 7.12109L18.3282 7.12109L18.3284 7.57812C18.3285 7.95166 18.3456 8.06348 18.4218 8.18799C18.6978 8.64111 19.3649 8.64111 19.641 8.18799C19.717 8.06348 19.7341 7.95166 19.7343 7.57812L19.7345 7.12109L21.1648 7.12109L22.5951 7.12109L22.5828 14.6196C22.5704 22.1104 22.5704 22.1182 22.4738 22.2476C22.4207 22.3188 22.319 22.4204 22.2478 22.4736C22.1212 22.5684 22.0609 22.5708 19.4908 22.5835L16.8634 22.5972L16.9033 22.4897C16.9253 22.4312 16.9491 20.0093 16.9563 17.1079C16.9692 11.9067 16.968 11.8311 16.8757 11.6802C16.8243 11.5962 16.7135 11.4858 16.6294 11.4346C16.4801 11.3433 16.3853 11.3413 12.4336 11.3408L8.39062 11.3408L8.39062 9.23096L8.39062 7.12109L9.84375 7.12109L11.2969 7.12109L11.297 7.57812ZM15.5518 17.4326C15.5392 22.082 15.5383 22.1191 15.4425 22.2476C15.3893 22.3188 15.2876 22.4204 15.2164 22.4736C15.087 22.5703 15.0798 22.5703 8.48438 22.5703C1.88892 22.5703 1.88159 22.5703 1.75232 22.4736C1.68103 22.4204 1.57935 22.3188 1.52625 22.2476C1.4303 22.1191 1.42944 22.082 1.41687 17.4326L1.4043 12.7476L8.48438 12.7476L15.5643 12.7476L15.5518 17.4326ZM4.60498 14.2476C4.30762 14.4292 4.26587 14.5635 4.26575 15.3398C4.2655 16.1133 4.33569 16.5537 4.54553 17.0957C4.95178 18.145 5.90076 19.0942 6.94983 19.5005C7.91846 19.876 9.05017 19.876 10.0188 19.5005C11.0679 19.0942 12.0168 18.145 12.4231 17.0957C12.6331 16.5537 12.7031 16.1133 12.703 15.3398C12.7028 14.7305 12.6914 14.6279 12.6096 14.4937C12.3367 14.0459 11.6661 14.0405 11.3964 14.4839C11.3253 14.6011 11.3047 14.7583 11.2843 15.3403C11.2677 15.8135 11.2325 16.1396 11.1798 16.311C10.8865 17.2632 10.1649 17.978 9.21094 18.2617C8.83325 18.374 8.13538 18.374 7.75769 18.2617C6.80371 17.978 6.08228 17.2632 5.78882 16.311C5.73608 16.1396 5.70093 15.8135 5.68445 15.3403C5.66394 14.7583 5.64343 14.6011 5.57227 14.4839C5.44788 14.2793 5.21887 14.1543 4.96863 14.1543C4.8407 14.1543 4.69763 14.1909 4.60498 14.2476Z" fill="#FFFFFF" fill-opacity="1.000000" fill-rule="evenodd"/>
</svg>
