<svg width="23.333374" height="23.333496" viewBox="0 0 23.3334 23.3335" fill="none" xmlns="http://www.w3.org/2000/svg" xmlns:xlink="http://www.w3.org/1999/xlink">
	<desc>
			Created with Pixso.
	</desc>
	<defs/>
	<path id="Vector" d="M5.83337 2.3335C5.83337 1.71436 6.07922 1.12109 6.51672 0.683594C6.95435 0.245605 7.54785 0 8.16663 0L15.1666 0C15.7855 0 16.379 0.245605 16.8165 0.683594C17.2542 1.12109 17.5 1.71436 17.5 2.3335L17.5 4.6665L22.1666 4.6665C22.4761 4.6665 22.7728 4.78955 22.9916 5.0083C23.2104 5.22705 23.3334 5.52393 23.3334 5.8335C23.3334 6.14258 23.2104 6.43945 22.9916 6.6582C22.7728 6.87695 22.4761 7 22.1666 7L20.9196 7L19.908 21.1655C19.8661 21.7544 19.6027 22.3052 19.1708 22.7075C18.7389 23.1099 18.1707 23.3335 17.5804 23.3335L5.75171 23.3335C5.1615 23.3335 4.59326 23.1099 4.16138 22.7075C3.72949 22.3052 3.46606 21.7544 3.42419 21.1655L2.41504 7L1.16663 7C0.8573 7 0.560547 6.87695 0.341675 6.6582C0.122925 6.43945 0 6.14258 0 5.8335C0 5.52393 0.122925 5.22705 0.341675 5.0083C0.560547 4.78955 0.8573 4.6665 1.16663 4.6665L5.83337 4.6665L5.83337 2.3335ZM8.16663 4.6665L15.1666 4.6665L15.1666 2.3335L8.16663 2.3335L8.16663 4.6665ZM4.75305 7L5.75281 21L17.5817 21L18.5815 7L4.75305 7ZM9.33337 9.3335C9.6427 9.3335 9.93945 9.45605 10.1583 9.6748C10.3771 9.89404 10.5 10.1904 10.5 10.5L10.5 17.5C10.5 17.8096 10.3771 18.106 10.1583 18.3252C9.93945 18.5439 9.6427 18.6665 9.33337 18.6665C9.02393 18.6665 8.72717 18.5439 8.50842 18.3252C8.28955 18.106 8.16663 17.8096 8.16663 17.5L8.16663 10.5C8.16663 10.1904 8.28955 9.89404 8.50842 9.6748C8.72717 9.45605 9.02393 9.3335 9.33337 9.3335ZM14 9.3335C14.3094 9.3335 14.6062 9.45605 14.825 9.6748C15.0437 9.89404 15.1666 10.1904 15.1666 10.5L15.1666 17.5C15.1666 17.8096 15.0437 18.106 14.825 18.3252C14.6062 18.5439 14.3094 18.6665 14 18.6665C13.6906 18.6665 13.3938 18.5439 13.175 18.3252C12.9563 18.106 12.8334 17.8096 12.8334 17.5L12.8334 10.5C12.8334 10.1904 12.9563 9.89404 13.175 9.6748C13.3938 9.45605 13.6906 9.3335 14 9.3335Z" fill="#E1E1E1" fill-opacity="1.000000" fill-rule="nonzero"/>
</svg>
