<svg width="24.299805" height="24.299316" viewBox="0 0 24.2998 24.2993" fill="none" xmlns="http://www.w3.org/2000/svg" xmlns:xlink="http://www.w3.org/1999/xlink">
	<desc>
			Created with Pixso.
	</desc>
	<defs/>
	<path id="file 1 (Traced)" d="M6.13184 0.236328C5.96777 0.336426 0.293457 6.06348 0.20874 6.21436C0.164551 6.29248 0.151367 8.13428 0.150146 14.3369C0.148682 21.541 0.156006 22.3838 0.223145 22.6123C0.431641 23.3223 0.992432 23.8809 1.7002 24.0835C1.93604 24.1509 2.80859 24.1572 10.6636 24.145L19.3655 24.1313L19.7644 24.0254C21.6958 23.5112 23.1426 22.2373 23.8225 20.4526C24.0828 19.7695 24.1499 19.3657 24.1499 18.4834C24.1499 17.7876 24.1338 17.5986 24.0439 17.2407C23.5493 15.269 22.1807 13.7759 20.2883 13.1431C19.8098 12.9829 19.1309 12.8569 18.7437 12.8569L18.4973 12.8564L18.4973 7.42725C18.4973 1.52441 18.5066 1.7417 18.2349 1.25684C18.0659 0.955078 17.6606 0.554199 17.3823 0.413574C16.8364 0.137207 17.1184 0.149902 11.4614 0.149902C6.51001 0.150391 6.26611 0.154297 6.13184 0.236328ZM16.7141 1.6748C16.8113 1.73096 16.9214 1.85449 16.9839 1.97803L17.0896 2.18604L17.0896 7.60742L17.0896 13.0288L16.8091 13.1064C15.7253 13.4077 14.4695 14.3296 13.8118 15.3066L13.5671 15.6699L8.51196 15.6699C3.55054 15.6704 3.4541 15.6719 3.30396 15.7632C2.85059 16.0396 2.85059 16.707 3.30396 16.9829C3.45386 17.0742 3.5498 17.0762 8.20825 17.0762C11.9785 17.0767 12.9597 17.0884 12.959 17.1353C12.9585 17.1675 12.927 17.3838 12.8889 17.6157C12.8506 17.8477 12.8193 18.1377 12.8193 18.2603L12.8191 18.4834L8.13794 18.4834C3.5498 18.4834 3.45386 18.4854 3.30396 18.5767C2.85059 18.853 2.85059 19.52 3.30396 19.7964C3.45386 19.8877 3.5498 19.8896 8.22803 19.8896L12.9993 19.8896L13.0315 20.042C13.0828 20.2832 13.3738 20.9609 13.571 21.2983C13.8225 21.729 14.0815 22.064 14.4478 22.4341L14.7617 22.7515L8.39697 22.7388C2.05151 22.7266 2.03198 22.7261 1.90283 22.6299C1.83154 22.5767 1.72974 22.4751 1.67651 22.4038C1.57983 22.2744 1.57983 22.2666 1.56738 14.752L1.55518 7.22998L4.125 7.22998C6.60669 7.22949 6.7002 7.22656 6.8479 7.13623C6.93188 7.08496 7.04272 6.97461 7.09399 6.89062C7.18408 6.74268 7.18726 6.64941 7.1875 4.146L7.18774 1.55469L11.8687 1.56738C16.4702 1.57959 16.5527 1.58154 16.7141 1.6748ZM5.77979 4.20557L5.77979 5.82324L4.18042 5.82324L2.58081 5.82324L4.16577 4.20557C5.0376 3.31592 5.75757 2.58789 5.76538 2.58789C5.77344 2.58789 5.77979 3.31592 5.77979 4.20557ZM8.9353 4.51025C8.72144 4.64062 8.59595 4.86621 8.59595 5.12012C8.59595 5.37402 8.72144 5.59961 8.9353 5.72998C9.08374 5.82031 9.17749 5.82275 12.1152 5.82275C15.053 5.82275 15.1465 5.82031 15.2949 5.72998C15.7483 5.45361 15.7483 4.78613 15.2949 4.51025C15.1465 4.41992 15.053 4.41699 12.1152 4.41699C9.17749 4.41699 9.08374 4.41992 8.9353 4.51025ZM8.9353 7.32373C8.72144 7.45361 8.59595 7.6792 8.59595 7.93311C8.59595 8.18701 8.72144 8.4126 8.9353 8.54297C9.08374 8.6333 9.17749 8.63623 12.1152 8.63623C15.053 8.63623 15.1465 8.6333 15.2949 8.54297C15.7483 8.26709 15.7483 7.59961 15.2949 7.32373C15.1465 7.23291 15.053 7.23047 12.1152 7.23047C9.17749 7.23047 9.08374 7.23291 8.9353 7.32373ZM3.30396 10.1367C3.09009 10.2671 2.96436 10.4927 2.96436 10.7466C2.96436 11.0005 3.09009 11.2261 3.30396 11.3564C3.45435 11.4482 3.552 11.4497 9.29932 11.4497C15.0469 11.4497 15.1445 11.4482 15.2949 11.3564C15.7483 11.0801 15.7483 10.4131 15.2949 10.1367C15.1445 10.0449 15.0469 10.0435 9.29932 10.0435C3.552 10.0435 3.45435 10.0449 3.30396 10.1367ZM3.30396 12.9502C2.85059 13.2261 2.85059 13.8936 3.30396 14.1694C3.45386 14.2607 3.54956 14.2627 8.00977 14.2632C13.1609 14.2632 12.7798 14.292 12.9939 13.8877C13.1284 13.6333 13.1284 13.4863 12.9939 13.2324C12.7798 12.8276 13.1609 12.8564 8.00977 12.8569C3.54956 12.8569 3.45386 12.8589 3.30396 12.9502ZM18.9539 14.3135C22.1262 14.667 23.7881 18.1704 22.0349 20.8096C20.8621 22.5747 18.5652 23.2183 16.6907 22.3071C14.491 21.2378 13.6133 18.627 14.7458 16.522C15.4792 15.1592 16.7305 14.3916 18.417 14.2695C18.4634 14.2661 18.7048 14.2861 18.9539 14.3135ZM20.3511 17.1328C20.2993 17.1626 19.7117 17.7158 19.0449 18.3623C18.3782 19.0088 17.8176 19.5439 17.7993 19.5508C17.7808 19.5571 17.5344 19.3447 17.2517 19.0776C16.969 18.8105 16.6914 18.5674 16.635 18.5376C16.4753 18.4526 16.1462 18.4722 15.9746 18.5767C15.6665 18.7642 15.5408 19.1973 15.7031 19.5107C15.7759 19.6514 17.3098 21.1401 17.481 21.2363C17.5366 21.2676 17.6772 21.293 17.7935 21.293C17.9097 21.293 18.0503 21.2676 18.106 21.2363C18.272 21.1426 21.2185 18.2456 21.292 18.103C21.4541 17.7905 21.3279 17.3574 21.0203 17.1699C20.8494 17.0659 20.502 17.0469 20.3511 17.1328Z" fill="#FFFFFF" fill-opacity="1.000000" fill-rule="evenodd"/>
	<path id="file 1 (Traced)" d="M0.20874 6.21436C0.164551 6.29248 0.151367 8.13428 0.150146 14.3369C0.148682 21.541 0.156006 22.3838 0.223145 22.6123C0.431641 23.3223 0.992432 23.8809 1.7002 24.0835C1.93604 24.1509 2.80859 24.1572 10.6636 24.145L19.3655 24.1313L19.7644 24.0254C21.6958 23.5112 23.1426 22.2373 23.8225 20.4526C24.0828 19.7695 24.1499 19.3657 24.1499 18.4834C24.1499 17.7876 24.1338 17.5986 24.0439 17.2407C23.5493 15.269 22.1807 13.7759 20.2883 13.1431C19.8098 12.9829 19.1309 12.8569 18.7437 12.8569L18.4973 12.8564L18.4973 7.42725C18.4973 1.52441 18.5066 1.7417 18.2349 1.25684C18.0659 0.955078 17.6606 0.554199 17.3823 0.413574C16.8364 0.137207 17.1184 0.149902 11.4614 0.149902C6.51001 0.150391 6.26611 0.154297 6.13184 0.236328C5.96777 0.336426 0.293457 6.06348 0.20874 6.21436ZM16.9839 1.97803L17.0896 2.18604L17.0896 7.60742L17.0896 13.0288L16.8091 13.1064C15.7253 13.4077 14.4695 14.3296 13.8118 15.3066L13.5671 15.6699L8.51196 15.6699C3.55054 15.6704 3.4541 15.6719 3.30396 15.7632C2.85059 16.0396 2.85059 16.707 3.30396 16.9829C3.45386 17.0742 3.5498 17.0762 8.20825 17.0762C11.9785 17.0767 12.9597 17.0884 12.959 17.1353C12.9585 17.1675 12.927 17.3838 12.8889 17.6157C12.8506 17.8477 12.8193 18.1377 12.8193 18.2603L12.8191 18.4834L8.13794 18.4834C3.5498 18.4834 3.45386 18.4854 3.30396 18.5767C2.85059 18.853 2.85059 19.52 3.30396 19.7964C3.45386 19.8877 3.5498 19.8896 8.22803 19.8896L12.9993 19.8896L13.0315 20.042C13.0828 20.2832 13.3738 20.9609 13.571 21.2983C13.8225 21.729 14.0815 22.064 14.4478 22.4341L14.7617 22.7515L8.39697 22.7388C2.05151 22.7266 2.03198 22.7261 1.90283 22.6299C1.83154 22.5767 1.72974 22.4751 1.67651 22.4038C1.57983 22.2744 1.57983 22.2666 1.56738 14.752L1.55518 7.22998L4.125 7.22998C6.60669 7.22949 6.7002 7.22656 6.8479 7.13623C6.93188 7.08496 7.04272 6.97461 7.09399 6.89062C7.18408 6.74268 7.18726 6.64941 7.1875 4.146L7.18774 1.55469L11.8687 1.56738C16.4702 1.57959 16.5527 1.58154 16.7141 1.6748C16.8113 1.73096 16.9214 1.85449 16.9839 1.97803ZM5.77979 5.82324L4.18042 5.82324L2.58081 5.82324L4.16577 4.20557C5.0376 3.31592 5.75757 2.58789 5.76538 2.58789C5.77344 2.58789 5.77979 3.31592 5.77979 4.20557L5.77979 5.82324ZM8.59595 5.12012C8.59595 5.37402 8.72144 5.59961 8.9353 5.72998C9.08374 5.82031 9.17749 5.82275 12.1152 5.82275C15.053 5.82275 15.1465 5.82031 15.2949 5.72998C15.7483 5.45361 15.7483 4.78613 15.2949 4.51025C15.1465 4.41992 15.053 4.41699 12.1152 4.41699C9.17749 4.41699 9.08374 4.41992 8.9353 4.51025C8.72144 4.64062 8.59595 4.86621 8.59595 5.12012ZM8.59595 7.93311C8.59595 8.18701 8.72144 8.4126 8.9353 8.54297C9.08374 8.6333 9.17749 8.63623 12.1152 8.63623C15.053 8.63623 15.1465 8.6333 15.2949 8.54297C15.7483 8.26709 15.7483 7.59961 15.2949 7.32373C15.1465 7.23291 15.053 7.23047 12.1152 7.23047C9.17749 7.23047 9.08374 7.23291 8.9353 7.32373C8.72144 7.45361 8.59595 7.6792 8.59595 7.93311ZM2.96436 10.7466C2.96436 11.0005 3.09009 11.2261 3.30396 11.3564C3.45435 11.4482 3.552 11.4497 9.29932 11.4497C15.0469 11.4497 15.1445 11.4482 15.2949 11.3564C15.7483 11.0801 15.7483 10.4131 15.2949 10.1367C15.1445 10.0449 15.0469 10.0435 9.29932 10.0435C3.552 10.0435 3.45435 10.0449 3.30396 10.1367C3.09009 10.2671 2.96436 10.4927 2.96436 10.7466ZM3.30396 14.1694C3.45386 14.2607 3.54956 14.2627 8.00977 14.2632C13.1609 14.2632 12.7798 14.292 12.9939 13.8877C13.1284 13.6333 13.1284 13.4863 12.9939 13.2324C12.7798 12.8276 13.1609 12.8564 8.00977 12.8569C3.54956 12.8569 3.45386 12.8589 3.30396 12.9502C2.85059 13.2261 2.85059 13.8936 3.30396 14.1694ZM22.0349 20.8096C20.8621 22.5747 18.5652 23.2183 16.6907 22.3071C14.491 21.2378 13.6133 18.627 14.7458 16.522C15.4792 15.1592 16.7305 14.3916 18.417 14.2695C18.4634 14.2661 18.7048 14.2861 18.9539 14.3135C22.1262 14.667 23.7881 18.1704 22.0349 20.8096ZM19.0449 18.3623C18.3782 19.0088 17.8176 19.5439 17.7993 19.5508C17.7808 19.5571 17.5344 19.3447 17.2517 19.0776C16.969 18.8105 16.6914 18.5674 16.635 18.5376C16.4753 18.4526 16.1462 18.4722 15.9746 18.5767C15.6665 18.7642 15.5408 19.1973 15.7031 19.5107C15.7759 19.6514 17.3098 21.1401 17.481 21.2363C17.5366 21.2676 17.6772 21.293 17.7935 21.293C17.9097 21.293 18.0503 21.2676 18.106 21.2363C18.272 21.1426 21.2185 18.2456 21.292 18.103C21.4541 17.7905 21.3279 17.3574 21.0203 17.1699C20.8494 17.0659 20.502 17.0469 20.3511 17.1328C20.2993 17.1626 19.7117 17.7158 19.0449 18.3623Z" stroke="#FFFFFF" stroke-opacity="1.000000" stroke-width="0.300000"/>
</svg>
