<svg width="23.333984" height="21.565918" viewBox="0 0 23.334 21.5659" fill="none" xmlns="http://www.w3.org/2000/svg" xmlns:xlink="http://www.w3.org/1999/xlink">
	<desc>
			Created with Pixso.
	</desc>
	<defs/>
	<path id="Vector" d="M11.668 1.78369C14.4082 -0.676758 18.6436 -0.595215 21.2832 2.0498C23.9229 4.6958 24.0137 8.90967 21.5586 11.6587L11.665 21.5659L1.77441 11.6587C-0.679688 8.90967 -0.587891 4.68896 2.0498 2.0498C4.69238 -0.591309 8.91895 -0.680176 11.668 1.78369ZM19.6318 3.69824C17.8818 1.9458 15.0586 1.875 13.2266 3.52002L11.6689 4.91748L10.1104 3.521C8.27246 1.87354 5.45508 1.9458 3.7002 3.70068C1.96191 5.43896 1.875 8.22168 3.47656 10.0601L11.667 18.2632L19.8564 10.0615C21.46 8.22168 21.3721 5.44238 19.6318 3.69824Z" fill="#FFFFFF" fill-opacity="1.000000" fill-rule="nonzero"/>
</svg>
