<svg width="44.183594" height="42.130371" viewBox="0 0 44.1836 42.1304" fill="none" xmlns="http://www.w3.org/2000/svg" xmlns:xlink="http://www.w3.org/1999/xlink">
	<desc>
			Created with Pixso.
	</desc>
	<defs/>
	<path id="Vector" d="M33.832 42.1301C33.2422 42.1296 32.666 41.9531 32.1777 41.6235L22.2324 34.9568C22.1836 34.9231 22.125 34.905 22.0645 34.905C22.0059 34.905 21.9473 34.9231 21.8984 34.9568L11.9512 41.6235C11.4531 41.957 10.8633 42.1306 10.2617 42.1216C9.66211 42.1123 9.07812 41.9207 8.58984 41.572C8.09961 41.2234 7.72852 40.7341 7.52539 40.1694C7.32031 39.6047 7.29297 38.9912 7.44531 38.4102L10.7109 26.8901C10.7266 26.8323 10.7246 26.771 10.707 26.7141C10.6875 26.6572 10.6523 26.6072 10.6055 26.5703L1.19141 19.1702C0.695312 18.801 0.328125 18.2861 0.140625 17.6975C-0.046875 17.1089 -0.046875 16.4761 0.142578 15.8879C0.332031 15.2998 0.701172 14.7859 1.19727 14.418C1.69531 14.05 2.29297 13.8469 2.91211 13.8369L14.9121 13.3835C14.9707 13.3794 15.0273 13.3584 15.0742 13.323C15.1211 13.2874 15.1582 13.239 15.1777 13.1836L19.3125 1.9436C19.5195 1.37378 19.8984 0.881592 20.3965 0.53418C20.8926 0.186523 21.4844 0 22.0918 0C22.6992 0 23.291 0.186523 23.7871 0.53418C24.2852 0.881592 24.6641 1.37378 24.8711 1.9436L29.0059 13.1836C29.0254 13.239 29.0605 13.2874 29.1094 13.323C29.1562 13.3584 29.2129 13.3794 29.2715 13.3835L41.2715 13.8369C41.8887 13.8469 42.4883 14.05 42.9844 14.418C43.4824 14.7859 43.8516 15.2998 44.041 15.8879C44.2305 16.4761 44.2305 17.1089 44.043 17.6975C43.8555 18.2861 43.4863 18.801 42.9922 19.1702L33.5781 26.5703C33.5293 26.6062 33.4941 26.656 33.4746 26.7134C33.4551 26.7705 33.4551 26.8323 33.4707 26.8901L36.7383 38.4102C36.8535 38.8521 36.8652 39.3145 36.7715 39.7615C36.6797 40.2083 36.4844 40.6279 36.2031 40.9878C35.9219 41.3474 35.5625 41.6377 35.1504 41.8357C34.7402 42.0339 34.2891 42.1345 33.832 42.1301ZM22.0723 32.2368C22.6621 32.2549 23.2344 32.45 23.7109 32.7969L33.6582 39.4636C33.709 39.502 33.7695 39.5227 33.834 39.5234C33.8965 39.5239 33.959 39.5039 34.0098 39.4663C34.0605 39.4287 34.0977 39.3757 34.1172 39.3152C34.1348 39.2546 34.1328 39.1897 34.1113 39.1301L30.8457 27.6101C30.6836 27.0452 30.6953 26.4448 30.8789 25.8865C31.0625 25.3281 31.4082 24.8374 31.8711 24.4768L41.2852 17.0769C41.3359 17.0408 41.375 16.9893 41.3945 16.9297C41.4141 16.8701 41.4141 16.8059 41.3945 16.7461C41.375 16.6865 41.3379 16.6345 41.2871 16.5981C41.2363 16.5618 41.1738 16.5425 41.1113 16.5435L29.1113 16.0901C28.5234 16.0674 27.957 15.8699 27.4824 15.5232C27.0059 15.1765 26.6465 14.6963 26.4453 14.1436L22.3125 2.90356C22.293 2.84375 22.2559 2.79175 22.2051 2.75464C22.1543 2.71753 22.0938 2.69775 22.0312 2.69775C21.9688 2.69775 21.9082 2.71753 21.8574 2.75464C21.8066 2.79175 21.7695 2.84375 21.752 2.90356L17.6582 14.1301C17.457 14.6829 17.0957 15.1631 16.6211 15.5098C16.1465 15.8567 15.5801 16.054 14.9922 16.0769L2.99219 16.5303C2.92969 16.5293 2.86719 16.5483 2.81641 16.5847C2.76562 16.6213 2.72656 16.6731 2.70703 16.7329C2.68945 16.7925 2.68945 16.8569 2.70898 16.9163C2.72852 16.9758 2.76758 17.0276 2.81836 17.0635L12.2441 24.4768C12.707 24.8384 13.0527 25.3293 13.2344 25.8875C13.418 26.4453 13.4297 27.0449 13.2715 27.6101L10.0176 39.1301C9.99805 39.188 9.99805 39.2502 10.0176 39.3081C10.0371 39.3657 10.0742 39.4158 10.125 39.4502C10.1738 39.4915 10.2344 39.5142 10.2988 39.5142C10.3613 39.5142 10.4238 39.4915 10.4707 39.4502L20.418 32.7834C20.9043 32.4612 21.4746 32.2896 22.0586 32.2903L22.0723 32.2368Z" fill="#0053E0" fill-opacity="1.000000" fill-rule="nonzero"/>
</svg>
