<svg width="47.447266" height="35.271240" viewBox="0 0 47.4473 35.2712" fill="none" xmlns="http://www.w3.org/2000/svg" xmlns:xlink="http://www.w3.org/1999/xlink">
	<desc>
			Created with Pixso.
	</desc>
	<defs/>
	<path id="Vector" d="M47.4082 4.52441C47.3066 3.87549 47.0098 3.27295 46.5566 2.79688C46.1055 2.32056 45.5176 1.99316 44.875 1.85791L37.0488 0.137695C36.209 -0.045166 35.3398 -0.0458984 34.5 0.135742C33.6621 0.317627 32.8711 0.67749 32.1816 1.19116L9.04883 18.0444L2.56836 17.7778C2.04688 17.759 1.53516 17.905 1.10156 18.1951C0.667969 18.4849 0.335938 18.9038 0.15625 19.3923C-0.0253906 19.8809 -0.0488281 20.4143 0.0898438 20.9167C0.228516 21.4192 0.521484 21.865 0.929688 22.1912L7.5957 27.4312C8.39453 28.4045 8.92969 28.2178 22.168 21.0044L23.4082 33.5645C23.4297 33.907 23.5469 34.2368 23.748 34.5154C23.9473 34.7939 24.2227 35.0098 24.543 35.1377C24.7715 35.2283 25.0156 35.2737 25.2617 35.2712C25.7578 35.2559 26.2324 35.0618 26.5957 34.7244L29.7812 31.8179C30.0996 31.5239 30.3145 31.136 30.3945 30.7112L33.3145 14.8445C38.0762 12.1777 42.582 9.67114 45.7949 7.84448C46.3711 7.521 46.832 7.03003 47.1211 6.43677C47.4102 5.84351 47.5098 5.17627 47.4082 4.52441ZM44.4746 5.52441C41.1426 7.41772 36.4746 10.071 31.4629 12.8179L30.916 13.1245L27.8086 30.0178L25.8496 31.8044L24.3828 16.7378L22.6094 17.6445C13.0488 22.9778 9.86133 24.5244 8.76953 25.0044L3.03516 20.4578L9.80859 20.7512L33.8086 3.33789C34.1855 3.05566 34.6191 2.85645 35.0781 2.75317C35.5371 2.64966 36.0137 2.64453 36.4746 2.73779L44.2754 4.41772C44.3965 4.4397 44.5059 4.49927 44.5898 4.58789C44.6738 4.67676 44.7266 4.78979 44.7422 4.91113C44.7695 5.02856 44.7578 5.15137 44.7109 5.26196C44.6621 5.37256 44.5801 5.4646 44.4746 5.52441Z" fill="#8500B4" fill-opacity="1.000000" fill-rule="nonzero"/>
</svg>
