<svg width="39.199219" height="39.199951" viewBox="0 0 39.1992 39.2" fill="none" xmlns="http://www.w3.org/2000/svg" xmlns:xlink="http://www.w3.org/1999/xlink">
	<desc>
			Created with Pixso.
	</desc>
	<defs/>
	<path id="Vector" d="M22.0508 23.2749L22.0508 30.625C22.0508 30.95 22.1797 31.2615 22.4082 31.4912C22.6387 31.7209 22.9492 31.8501 23.2754 31.8501L30.625 31.8501C30.9492 31.8501 31.2617 31.7209 31.4902 31.4912C31.7207 31.2615 31.8496 30.95 31.8496 30.625L31.8496 23.2749C31.8496 22.9502 31.7207 22.6384 31.4902 22.4087C31.2617 22.179 30.9492 22.05 30.625 22.05L23.2754 22.05C22.9492 22.05 22.6387 22.179 22.4082 22.4087C22.1797 22.6384 22.0508 22.9502 22.0508 23.2749ZM24.5 29.3999L24.5 24.5L29.4004 24.5L29.4004 29.3999L24.5 29.3999ZM7.34961 0C7.16992 0 6.99219 0.0395508 6.83008 0.115723C6.66797 0.192139 6.52344 0.302979 6.41016 0.440918L0.285156 7.79102C0.101562 8.01099 0 8.28857 0 8.57495L0 12.25C0 14.4255 0.945312 16.3831 2.44922 17.7283L2.44922 37.9751C2.44922 38.2998 2.57812 38.6116 2.80859 38.8413C3.03906 39.071 3.34961 39.2 3.67578 39.2L35.5254 39.2C35.8496 39.2 36.1621 39.071 36.3906 38.8413C36.6211 38.6116 36.75 38.2998 36.75 37.9751L36.75 17.7283C38.2539 16.3806 39.1992 14.4255 39.1992 12.25L39.1992 8.53101C39.1992 8.3103 39.1992 8.13403 38.916 7.79102L32.791 0.440918C32.6758 0.302979 32.5312 0.192139 32.3691 0.115723C32.207 0.0395508 32.0293 0 31.8496 0L7.34961 0ZM7.34961 17.1499C6.05078 17.1499 4.80469 16.6338 3.88477 15.7148C2.9668 14.7959 2.44922 13.5496 2.44922 12.25L2.44922 9.80005L12.25 9.80005L12.25 12.25C12.25 13.5496 11.7344 14.7959 10.8145 15.7148C9.89648 16.6338 8.65039 17.1499 7.34961 17.1499ZM19.5996 17.1499C18.3008 17.1499 17.0547 16.6338 16.1348 15.7148C15.2168 14.7959 14.6992 13.5496 14.6992 12.25L14.6992 9.80005L24.5 9.80005L24.5 12.25C24.5 13.5496 23.9844 14.7959 23.0645 15.7148C22.1465 16.6338 20.9004 17.1499 19.5996 17.1499ZM31.8496 17.1499C30.5508 17.1499 29.3047 16.6338 28.3848 15.7148C27.4668 14.7959 26.9492 13.5496 26.9492 12.25L26.9492 9.80005L36.75 9.80005L36.75 12.25C36.75 13.5496 36.2344 14.7959 35.3145 15.7148C34.3965 16.6338 33.1504 17.1499 31.8496 17.1499ZM7.34961 36.75L4.90039 36.75L4.90039 19.1836C6.44336 19.731 8.12695 19.7461 9.68164 19.2266C11.2344 18.7073 12.5703 17.6831 13.4746 16.3169C14.1445 17.3274 15.0566 18.156 16.125 18.729C17.1934 19.3018 18.3867 19.6011 19.5996 19.6001C20.8125 19.6008 22.0078 19.3013 23.0762 18.7278C24.1445 18.1545 25.0547 17.3254 25.7246 16.3145C26.6289 17.6804 27.9648 18.7048 29.5195 19.2241C31.0723 19.7437 32.7559 19.7285 34.3008 19.1812L34.3008 36.75L19.5996 36.75L19.5996 23.2749C19.5996 22.9502 19.4707 22.6384 19.2402 22.4087C19.0117 22.179 18.6992 22.05 18.375 22.05L8.57422 22.05C8.25 22.05 7.93945 22.179 7.70898 22.4087C7.47852 22.6384 7.34961 22.9502 7.34961 23.2749L7.34961 36.75ZM12.5938 7.3501L3.8418 7.3501L7.92383 2.44995L14.2246 2.44995L12.5938 7.3501ZM24.0254 7.3501L15.1758 7.3501L16.8066 2.44995L22.3926 2.44995L24.0254 7.3501ZM26.6074 7.3501L24.9746 2.44995L31.2773 2.44995L35.3613 7.3501L26.6074 7.3501ZM9.80078 36.75L9.80078 24.5L17.1504 24.5L17.1504 36.75L9.80078 36.75Z" fill="#31CEFF" fill-opacity="1.000000" fill-rule="nonzero"/>
</svg>
