<svg width="44.000000" height="32.388428" viewBox="0 0 44 32.3884" fill="none" xmlns="http://www.w3.org/2000/svg" xmlns:xlink="http://www.w3.org/1999/xlink">
	<desc>
			Created with Pixso.
	</desc>
	<defs/>
	<path id="Vector" d="M0.835938 13.9929L4.88867 15.3433L4.88867 25.666C4.88867 25.9202 4.96875 26.168 5.11523 26.375C5.26367 26.582 5.47266 26.7378 5.71094 26.821L21.5898 32.3171C21.8418 32.4072 22.1152 32.4121 22.3691 32.3306L22.3867 32.3257L22.4043 32.3196L38.2891 26.821C38.5273 26.7378 38.7363 26.582 38.8848 26.375C39.0312 26.168 39.1113 25.9202 39.1113 25.666L39.1113 15.3433L43.1641 13.9929C43.3496 13.9307 43.5195 13.8242 43.6562 13.6826C43.793 13.541 43.8945 13.3684 43.9492 13.1794C44.0059 12.9905 44.0156 12.7908 43.9766 12.5974C43.9395 12.4041 43.8555 12.2229 43.7324 12.0691L38.8438 5.95825C38.6973 5.77759 38.5039 5.64209 38.2852 5.56714L22.4004 0.0671387C22.1406 -0.0224609 21.8594 -0.0224609 21.5996 0.0671387L5.71484 5.56714C5.49609 5.64185 5.30273 5.77759 5.15625 5.95825L0.267578 12.0691C0.144531 12.2229 0.0605469 12.4041 0.0234375 12.5974C-0.015625 12.7908 -0.00585938 12.9905 0.0507812 13.1794C0.105469 13.3684 0.207031 13.541 0.34375 13.6826C0.480469 13.8242 0.650391 13.9307 0.835938 13.9929ZM18.7227 19.0332L20.7773 16.0999L20.7773 29.45L7.33398 24.7959L7.33398 16.1572L17.3359 19.4915C17.5859 19.5745 17.8555 19.5747 18.1055 19.4919C18.3555 19.4092 18.5723 19.2478 18.7227 19.032L18.7227 19.0332ZM9.84766 6.72192L22 10.9287L34.1523 6.72192L22 2.51514L9.84766 6.72192ZM25.2773 19.0332L23.2227 16.1011L23.2227 29.4512L36.666 24.7971L36.666 16.1572L26.6641 19.4915C26.4141 19.5745 26.1445 19.5747 25.8945 19.4919C25.6445 19.4092 25.4277 19.2478 25.2773 19.032L25.2773 19.0332ZM6.52734 8.15942L3.27148 12.228L10.0078 14.4731L17.2441 16.8845L20.0703 12.8477L19.9043 12.7903L6.52734 8.1582L6.52734 8.15942ZM40.7285 12.228L37.4727 8.1582L23.9297 12.8477L26.7559 16.8845L40.7285 12.228Z" fill="#FFA509" fill-opacity="1.000000" fill-rule="evenodd"/>
</svg>
