<svg width="37.523438" height="33.003174" viewBox="0 0 37.5234 33.0032" fill="none" xmlns="http://www.w3.org/2000/svg" xmlns:xlink="http://www.w3.org/1999/xlink">
	<desc>
			Created with Pixso.
	</desc>
	<defs/>
	<path id="Vector" d="M37.4004 15.9089L32.9004 5.40894C32.7852 5.13916 32.5938 4.90918 32.3477 4.74756C32.1035 4.58594 31.8164 4.49976 31.5234 4.5L27.0234 4.5L27.0234 1.5C27.0234 1.10229 26.8652 0.720703 26.584 0.439453C26.3027 0.157959 25.9199 0 25.5234 0L3.02344 0C2.19336 0 1.52344 0.671631 1.52344 1.5C1.52344 2.32837 2.19336 3 3.02344 3L24.0234 3L24.0234 21.834C23.3398 22.231 22.7402 22.7593 22.2617 23.3884C21.7832 24.0176 21.4355 24.7354 21.2363 25.5L11.8086 25.5C11.4453 24.0859 10.5762 22.8538 9.36719 22.0342C8.1582 21.2144 6.69336 20.8638 5.24414 21.0479C3.79492 21.2319 2.46289 21.938 1.49805 23.0337C0.533203 24.1294 0 25.5396 0 27C0 28.4604 0.533203 29.8706 1.49805 30.9663C2.46289 32.062 3.79492 32.7681 5.24414 32.9521C6.69336 33.1362 8.1582 32.7854 9.36719 31.9658C10.5762 31.1462 11.4453 29.9141 11.8086 28.5L21.2363 28.5C21.5625 29.7874 22.3086 30.9292 23.3555 31.7449C24.4043 32.5603 25.6953 33.0032 27.0234 33.0032C28.3496 33.0032 29.6406 32.5603 30.6895 31.7449C31.7363 30.9292 32.4824 29.7874 32.8086 28.5L36.0234 28.5C36.4199 28.5 36.8027 28.342 37.084 28.0605C37.3652 27.7793 37.5234 27.3977 37.5234 27L37.5234 16.5C37.5234 16.2969 37.4805 16.0957 37.4004 15.9089ZM6.02344 30C5.42969 30 4.84961 29.824 4.35547 29.4944C3.86328 29.1648 3.47852 28.6963 3.25 28.1479C3.02344 27.5999 2.96484 26.9966 3.08008 26.4148C3.19531 25.8328 3.48242 25.2983 3.90039 24.8787C4.32031 24.4592 4.85547 24.1733 5.4375 24.0576C6.01953 23.9419 6.62305 24.0012 7.16992 24.2283C7.71875 24.4553 8.1875 24.8398 8.51758 25.3333C8.8457 25.8267 9.02344 26.4067 9.02344 27C9.02148 27.7954 8.70508 28.5581 8.14258 29.1204C7.58008 29.6829 6.81836 29.9993 6.02344 30ZM27.0234 7.5L30.5332 7.5L33.748 15L27.0234 15L27.0234 7.5ZM27.0234 30C26.4297 30 25.8496 29.824 25.3555 29.4944C24.8633 29.1648 24.4785 28.6963 24.25 28.1479C24.0234 27.5999 23.9648 26.9966 24.0801 26.4148C24.1953 25.8328 24.4824 25.2983 24.9004 24.8787C25.3203 24.4592 25.8555 24.1733 26.4375 24.0576C27.0195 23.9419 27.623 24.0012 28.1699 24.2283C28.7188 24.4553 29.1875 24.8398 29.5176 25.3333C29.8457 25.8267 30.0234 26.4067 30.0234 27C30.0215 27.7954 29.7051 28.5581 29.1426 29.1204C28.5801 29.6829 27.8184 29.9993 27.0234 30ZM34.5234 25.5L32.8086 25.5C32.4785 24.2151 31.7324 23.0762 30.6836 22.262C29.6367 21.4475 28.3496 21.0037 27.0234 21L27.0234 18L34.5234 18L34.5234 25.5Z" fill="#00E016" fill-opacity="1.000000" fill-rule="nonzero"/>
</svg>
