<svg width="70.000000" height="70.000000" viewBox="0 0 70 70" fill="none" xmlns="http://www.w3.org/2000/svg" xmlns:xlink="http://www.w3.org/1999/xlink">
	<desc>
			Created with Pixso.
	</desc>
	<defs>
		<linearGradient id="paint_linear_1_135_0" x1="34.999996" y1="0.000000" x2="34.999996" y2="46.322689" gradientUnits="userSpaceOnUse">
			<stop stop-color="#FFA509"/>
			<stop offset="1.000000" stop-color="#F66C4F"/>
		</linearGradient>
		<linearGradient id="paint_linear_1_136_0" x1="35.517647" y1="44.613281" x2="35.517647" y2="70.000275" gradientUnits="userSpaceOnUse">
			<stop stop-color="#411515"/>
			<stop offset="1.000000" stop-color="#000000"/>
		</linearGradient>
	</defs>
	<path id="04012019-07 1 (Traced)" d="M32.8887 0.0102539C28.4258 0.31543 24.3926 1.32764 20.4004 3.14404C19.4238 3.58887 19.2422 3.67969 18.2148 4.24268C14.0879 6.50488 10.5078 9.52148 7.58203 13.2002C3.04883 18.9023 0.445312 25.77 0.0273438 33.1279C-0.0253906 34.0747 0.00195312 36.8169 0.0742188 37.5576C0.320312 40.1138 0.513672 41.353 0.955078 43.1885C1.72852 46.4102 2.96875 49.5361 4.60742 52.3887C5.36719 53.7104 6.04102 54.7471 6.13086 54.7295C6.21484 54.7129 10.7773 50.1943 10.7773 50.1279C10.7773 50.0938 10.5977 49.7578 10.3789 49.3818C9.66797 48.1675 9.04492 46.8965 8.49023 45.5264C7.98242 44.27 7.39453 42.3354 7.10938 40.9766C5.61523 33.8486 6.83594 26.4824 10.5312 20.3281C13.3281 15.6733 17.3926 11.9053 22.2363 9.47852C23.8496 8.66943 25.3125 8.09277 27.0098 7.59717C28.6602 7.11523 30.1738 6.81787 32.0586 6.60498C32.9316 6.50635 33.3203 6.49121 34.998 6.49121C36.6777 6.49121 37.0664 6.50635 37.9395 6.60498C39.8242 6.81787 41.3379 7.11523 42.9883 7.59717C44.6855 8.09277 46.1484 8.66943 47.7617 9.47852C51.707 11.4546 55.1309 14.3125 57.7949 17.8506C61.7344 23.0811 63.7695 29.6006 63.4902 36.1001C63.4062 38.0542 63.1016 40.2534 62.7051 41.7808C61.9473 44.6914 60.9961 47.0361 59.6289 49.3667C59.4043 49.751 59.2188 50.0938 59.2188 50.1279C59.2188 50.1943 63.7832 54.7129 63.8672 54.7295C64.0293 54.7617 65.5742 52.1665 66.4277 50.4277C68.5312 46.1455 69.6973 41.6572 69.9727 36.7783C70.0254 35.8472 69.9961 33.2158 69.9238 32.4048C69.7637 30.6367 69.6797 30.0005 69.4121 28.5337C68.1328 21.542 64.5957 14.9209 59.4785 9.93994C54.1836 4.78516 47.5977 1.49512 40.3008 0.358887C38.5293 0.0830078 37.5957 0.0166016 35.3008 0.00341797C34.125 -0.00292969 33.041 0 32.8887 0.0102539ZM29.6348 19.0444L24.2949 24.3862L24.2949 21.6201L24.2949 18.854L23.9824 18.6846C23.0957 18.207 22.293 17.771 21.6895 17.4395C21.3203 17.2368 21.0098 17.0713 20.998 17.0713C20.9883 17.0713 20.6953 16.9131 20.3516 16.7192C20.0059 16.5259 19.6953 16.3682 19.6602 16.3687C19.625 16.3696 19.4844 16.5518 19.3457 16.7729C19.207 16.9946 18.959 17.3843 18.793 17.6392C18.627 17.894 18.3125 18.3853 18.0918 18.7305C17.873 19.0762 17.5547 19.5737 17.3848 19.8364C17.2168 20.0991 16.9844 20.4609 16.8711 20.6406C16.7559 20.8203 16.4375 21.3179 16.1602 21.7461C15.8848 22.1743 15.668 22.5337 15.6797 22.5444C15.6895 22.5552 16.2715 22.2476 16.9707 21.8604C17.668 21.4736 18.3535 21.0942 18.4922 21.0186C18.6309 20.9424 18.8594 20.8149 19 20.7354C19.1426 20.6558 19.2715 20.5903 19.2891 20.5903C19.3066 20.5903 19.3203 23.7749 19.3184 27.6665L19.3184 34.7427L19.1699 34.3906C19.0898 34.1968 18.8516 33.5977 18.6426 33.0581C17.9746 31.3433 17.8457 31.0234 17.8027 30.9731C17.7773 30.9443 16.291 32.395 14.1191 34.5679C10.75 37.937 10.4766 38.2236 10.4766 38.3789C10.4766 38.6611 10.7246 40.1772 10.9062 41.0015C11.1875 42.2754 11.5059 43.3374 11.9902 44.6128C12.2363 45.2617 12.7383 46.3809 12.7812 46.3809C12.7988 46.3809 17.8047 41.3867 23.9062 35.2832L34.998 24.1851L46.1016 35.2935C52.209 41.4028 57.2168 46.3901 57.2324 46.3755C57.2773 46.3296 57.666 45.4653 57.875 44.9482C58.373 43.7075 58.7754 42.4126 59.0723 41.1021C59.2402 40.353 59.5195 38.6636 59.5215 38.3872C59.5215 38.2202 58.9121 37.6021 47.2734 25.957C40.5352 19.2173 35.0137 13.7031 34.998 13.7031C34.9844 13.7031 32.5703 16.1064 29.6348 19.0444ZM32.8535 33.3599C32.3906 33.481 31.8379 33.7241 31.5117 33.9492C30.918 34.3589 30.2812 35.1064 30.0195 35.7017C29.8477 36.0923 29.6719 36.8213 29.6719 37.1401L29.6719 37.4321L31.7578 37.4321L33.8438 37.4321L33.8438 35.3457L33.8438 33.2593L33.5293 33.2622C33.3555 33.2637 33.0527 33.3076 32.8535 33.3599ZM36.1543 35.3457L36.1543 37.4321L38.2402 37.4321L40.3262 37.4321L40.3262 37.1401C40.3262 36.8213 40.1484 36.0923 39.9785 35.7017C39.7168 35.1064 39.0801 34.3589 38.4863 33.9492C37.9473 33.5762 37.0098 33.2593 36.4473 33.2593L36.1543 33.2593L36.1543 35.3457ZM29.6719 41.3032L29.6719 43.4146L31.7578 43.4146L33.8438 43.4146L33.8438 41.3032L33.8438 39.1919L31.7578 39.1919L29.6719 39.1919L29.6719 41.3032ZM36.1543 41.3032L36.1543 43.4146L38.2402 43.4146L40.3262 43.4146L40.3262 41.3032L40.3262 39.1919L38.2402 39.1919L36.1543 39.1919L36.1543 41.3032ZM43.2168 45.186C43.2031 45.2485 43.1855 45.3789 43.1777 45.4761L43.1641 45.6519L41.6973 45.6768C40.8203 45.6919 40.209 45.7222 40.1797 45.7524C40.1523 45.7803 40.123 45.9272 40.1152 46.0791L40.0996 46.3555L35.2246 46.3843C30.0762 46.4146 30.1562 46.4111 29.0938 46.6548C27.9727 46.9126 26.4961 47.5713 25.3965 48.3047C23.8262 49.3511 22.1543 51.04 20.9922 52.7524C20.7812 53.0635 20.6211 53.3286 20.6328 53.3418C20.6465 53.355 20.9707 53.209 21.3516 53.0171C23.2051 52.0869 25.3438 51.437 27.1309 51.2612C28.7031 51.1064 30.5488 51.2969 31.2051 51.6821C32.0684 52.1885 32.5996 53.5991 32.7344 55.7407C32.7812 56.4902 32.8379 56.6558 33.0957 56.8086L33.2402 56.8936L33.2402 60.1904L33.2402 63.4878L32.8008 63.4536C26.9648 63.002 21.4668 60.7915 16.9082 57.064C15.6465 56.0317 14.3809 54.7852 13.2383 53.4512L12.7695 52.9053L12.3652 53.3257C8.30664 57.5483 8.31641 57.5376 8.31641 57.6172C8.31641 57.6904 9.36914 58.8462 10.1758 59.6582C13.2285 62.7324 16.5664 65.0586 20.5723 66.9014C26.4941 69.626 33.5586 70.6113 40.125 69.6284C47.0332 68.5942 53.2559 65.6514 58.4902 60.9443C59.5469 59.9951 61.6816 57.7578 61.6816 57.6011C61.6816 57.5723 61.3477 57.2017 60.9414 56.7773C60.0586 55.8589 58.252 53.9751 57.6543 53.3501L57.2305 52.9043L56.7617 53.4507C52.8125 58.0674 47.6777 61.2588 41.8809 62.6973C40.8242 62.96 39.5098 63.2017 38.4922 63.3218C38.2422 63.3511 37.9648 63.3848 37.875 63.396L37.7129 63.4175L37.7129 60.1519L37.7129 56.8862L37.875 56.8076C38.1152 56.6929 38.2305 56.5068 38.25 56.2129C38.3555 54.5239 38.4434 53.9243 38.6973 53.1782C38.9336 52.4858 39.3457 51.8374 39.7422 51.5352C39.8848 51.4268 39.9355 51.4111 40.0176 51.4551C40.0723 51.4844 40.125 51.5596 40.1328 51.6216L40.1504 51.7349L41.6035 51.7485C42.5723 51.7573 43.0781 51.7803 43.123 51.8174C43.1621 51.8506 43.1895 51.9775 43.1895 52.1333C43.1895 52.2764 43.2168 52.4209 43.25 52.4541C43.3438 52.5474 46.9746 52.5396 47.0527 52.4458C47.0938 52.396 47.1055 51.3848 47.0977 48.7383L47.084 45.0986L45.1641 45.0854L43.2422 45.0723L43.2168 45.186Z" fill="url(#paint_linear_1_135_0)" fill-opacity="1.000000" fill-rule="evenodd"/>
	<path id="04012019-07 1 (Traced)" d="M43.2168 45.1865C43.2031 45.249 43.1855 45.3794 43.1777 45.4761L43.1641 45.6523L41.6973 45.6772C40.8203 45.6924 40.209 45.7227 40.1797 45.7524C40.1523 45.7803 40.123 45.9272 40.1152 46.0796L40.0996 46.356L35.2246 46.3848C30.0742 46.415 30.1543 46.4116 29.0938 46.6553C27.9727 46.9131 26.4961 47.5713 25.3945 48.3052C23.8262 49.3516 22.1543 51.0405 20.9922 52.7529C20.7812 53.0635 20.6211 53.3286 20.6328 53.3418C20.6465 53.355 20.9707 53.209 21.3516 53.0171C23.2051 52.0874 25.3438 51.4375 27.1309 51.2612C28.7031 51.1064 30.5488 51.2974 31.2051 51.6821C32.0684 52.1885 32.5996 53.5996 32.7344 55.7407C32.7812 56.4902 32.8379 56.6562 33.0957 56.8091L33.2402 56.894L33.2402 60.1909L33.2402 63.4878L32.8008 63.4541C26.9648 63.0024 21.4668 60.792 16.9082 57.064C15.6465 56.0317 14.3789 54.7856 13.2383 53.4517L12.7695 52.9053L12.3652 53.3257C8.30469 57.5488 8.31641 57.5381 8.31641 57.6177C8.31641 57.6909 9.36914 58.8467 10.1758 59.6587C13.2285 62.7329 16.5664 65.0586 20.5723 66.9019C26.4941 69.626 33.5586 70.6113 40.125 69.6284C47.0312 68.5942 53.2559 65.6519 58.4902 60.9443C59.5469 59.9951 61.6816 57.7583 61.6816 57.6016C61.6816 57.5723 61.3477 57.2017 60.9395 56.7778C60.0566 55.8589 58.252 53.9756 57.6543 53.3506L57.2285 52.9048L56.7617 53.4512C52.8125 58.0674 47.6758 61.2588 41.8809 62.6973C40.8223 62.96 39.5098 63.2021 38.4902 63.3223C38.2422 63.3516 37.9648 63.3848 37.875 63.3965L37.7129 63.4175L37.7129 60.1523L37.7129 56.8867L37.875 56.8081C38.1133 56.6929 38.2305 56.5073 38.248 56.2129C38.3535 54.5239 38.4434 53.9243 38.6973 53.1787C38.9336 52.4863 39.3457 51.8379 39.7402 51.5356C39.8828 51.4268 39.9355 51.4116 40.0176 51.4551C40.0723 51.4849 40.125 51.5596 40.1328 51.6221L40.1484 51.7354L41.6016 51.7485C42.5723 51.7573 43.0781 51.7803 43.123 51.8174C43.1621 51.8511 43.1895 51.978 43.1895 52.1333C43.1895 52.2769 43.2168 52.4209 43.25 52.4541C43.3438 52.5479 46.9746 52.54 47.0527 52.4463C47.0938 52.3965 47.1055 51.3853 47.0977 48.7383L47.084 45.0991L45.1621 45.0859L43.2422 45.0728L43.2168 45.1865Z" fill="url(#paint_linear_1_136_0)" fill-opacity="1.000000" fill-rule="evenodd"/>
</svg>
