<svg width="28.000000" height="28.000000" viewBox="0 0 28 28" fill="none" xmlns="http://www.w3.org/2000/svg" xmlns:xlink="http://www.w3.org/1999/xlink">
	<desc>
			Created with Pixso.
	</desc>
	<defs>
		<clipPath id="clip1_16">
			<rect id="bx:search-alt" width="28.000000" height="28.000000" fill="white" fill-opacity="0"/>
		</clipPath>
	</defs>
	<g opacity="0.300000">
		<rect id="bx:search-alt" width="28.000000" height="28.000000" fill="#FFFFFF" fill-opacity="0"/>
		<g clip-path="url(#clip1_16)">
			<path id="Vector" d="M11.668 21C13.7383 20.9995 15.75 20.3066 17.3809 19.0308L21.6836 23.3345C22.1406 23.79 22.8789 23.79 23.334 23.3345C23.7891 22.8789 23.7891 22.1406 23.334 21.6851L19.0293 17.3813C20.3066 15.75 21 13.7383 21 11.667C21 6.52051 16.8145 2.3335 11.668 2.3335C6.52148 2.3335 2.33398 6.52051 2.33398 11.667C2.33398 16.813 6.52148 21 11.668 21ZM11.668 4.66699C15.5273 4.66699 18.668 7.80615 18.668 11.667C18.668 15.5273 15.5273 18.667 11.668 18.667C7.80664 18.667 4.66797 15.5273 4.66797 11.667C4.66797 7.80615 7.80664 4.66699 11.668 4.66699Z" fill="#000000" fill-opacity="1.000000" fill-rule="nonzero"/>
			<path id="Vector" d="M13.3125 10.0171C13.4727 10.1772 13.6074 10.3555 13.7129 10.5479C14.0234 11.1123 14.5215 11.667 15.168 11.667C15.8105 11.667 16.3477 11.1372 16.1895 10.5132C16.1348 10.2979 16.0645 10.0859 15.9785 9.87988C15.7422 9.31348 15.3984 8.7998 14.9629 8.36768C13.4766 6.88232 11.0703 6.64746 9.29297 7.66309C8.73438 7.98242 8.73828 8.73682 9.19141 9.19287C9.64844 9.64941 10.3965 9.61523 11.0176 9.44385C11.8105 9.22559 12.7129 9.41748 13.3125 10.0171Z" fill="#000000" fill-opacity="1.000000" fill-rule="nonzero"/>
		</g>
	</g>
</svg>
