<svg width="28.000000" height="28.000000" viewBox="0 0 28 28" fill="none" xmlns="http://www.w3.org/2000/svg" xmlns:xlink="http://www.w3.org/1999/xlink">
	<desc>
			Created with Pixso.
	</desc>
	<defs>
		<clipPath id="clip1_424">
			<rect id="material-symbols:shopping-cart-outline-rounded" width="28.000000" height="28.000000" fill="white" fill-opacity="0"/>
		</clipPath>
	</defs>
	<rect id="material-symbols:shopping-cart-outline-rounded" width="28.000000" height="28.000000" fill="#FFFFFF" fill-opacity="0"/>
	<g clip-path="url(#clip1_424)">
		<path id="shopping-bag 1 (Traced)" d="M16.6016 2.07178C14.9707 2.4209 13.6602 3.74414 13.3242 5.37988C13.2695 5.64258 13.25 6.01025 13.25 6.72754L13.25 7.71436L11.3633 7.71436C9.5625 7.71484 9.46875 7.71875 9.32422 7.80762C9.24023 7.85889 9.12891 7.96973 9.07812 8.05371C8.98828 8.20117 8.98438 8.29492 8.98438 10.7739L8.98438 13.3408L5.73828 13.3408C2.58203 13.3413 2.48828 13.3438 2.33984 13.4346C2.25586 13.4858 2.14453 13.5962 2.09375 13.6802C2.00195 13.8306 2 13.9272 2 19.022C2 23.9727 2.00391 24.2236 2.08789 24.4941C2.20898 24.8853 2.36914 25.1392 2.66602 25.4219C2.94922 25.689 3.16602 25.813 3.54297 25.9248C3.77344 25.9937 4.75586 26.0005 13.9961 26C24.9258 25.9995 24.3965 26.0107 24.8711 25.7681C25.1387 25.6318 25.5527 25.2388 25.7051 24.9795C25.7695 24.8687 25.8633 24.6504 25.9121 24.4941C25.9961 24.2207 26 23.9146 26 16.2085C26 8.30664 25.998 8.20459 25.9062 8.05371C25.8555 7.96973 25.7441 7.85889 25.6602 7.80762C25.5156 7.71875 25.4219 7.71484 23.6289 7.71436L21.748 7.71436L21.7188 7.18701C21.7012 6.89648 21.6875 6.45264 21.6875 6.2002C21.6875 4.20459 20.2695 2.47363 18.3027 2.06836C17.8535 1.97559 17.043 1.97754 16.6016 2.07178ZM18.2246 3.52295C18.9316 3.73096 19.5938 4.26172 19.9141 4.87744C20.2148 5.4541 20.2441 5.61426 20.2695 6.71777L20.291 7.71436L17.502 7.71436L14.7129 7.71436L14.6797 6.98926C14.6289 5.93604 14.6992 5.49561 15.0117 4.90088C15.4062 4.1499 16.1621 3.60059 17.0078 3.4502C17.3281 3.39355 17.8984 3.42773 18.2246 3.52295ZM13.2969 9.57812C13.2969 9.95166 13.3145 10.0635 13.3906 10.188C13.666 10.6411 14.334 10.6411 14.6094 10.188C14.6855 10.0635 14.7031 9.95166 14.7031 9.57812L14.7031 9.12109L17.5156 9.12109L20.3281 9.12109L20.3281 9.57812C20.3281 9.95166 20.3457 10.0635 20.4219 10.188C20.6973 10.6411 21.3652 10.6411 21.6406 10.188C21.7168 10.0635 21.7344 9.95166 21.7344 9.57812L21.7344 9.12109L23.1641 9.12109L24.5957 9.12109L24.582 16.6196C24.5703 24.1104 24.5703 24.1182 24.4746 24.2476C24.4199 24.3188 24.3184 24.4204 24.248 24.4736C24.1211 24.5684 24.0605 24.5708 21.4902 24.5835L18.8633 24.5972L18.9023 24.4897C18.9258 24.4312 18.9492 22.0093 18.957 19.1079C18.9688 13.9067 18.9688 13.8311 18.875 13.6802C18.8242 13.5962 18.7129 13.4858 18.6289 13.4346C18.4805 13.3433 18.3848 13.3413 14.4336 13.3408L10.3906 13.3408L10.3906 11.231L10.3906 9.12109L11.8438 9.12109L13.2969 9.12109L13.2969 9.57812ZM17.5508 19.4326C17.5391 24.082 17.5391 24.1191 17.4434 24.2476C17.3887 24.3188 17.2871 24.4204 17.2168 24.4736C17.0879 24.5703 17.0801 24.5703 10.4844 24.5703C3.88867 24.5703 3.88086 24.5703 3.75195 24.4736C3.68164 24.4204 3.58008 24.3188 3.52539 24.2476C3.42969 24.1191 3.42969 24.082 3.41602 19.4326L3.4043 14.7476L10.4844 14.7476L17.5645 14.7476L17.5508 19.4326ZM6.60547 16.2476C6.30664 16.4292 6.26562 16.5635 6.26562 17.3398C6.26562 18.1133 6.33594 18.5537 6.54492 19.0957C6.95117 20.145 7.90039 21.0942 8.94922 21.5005C9.91797 21.876 11.0508 21.876 12.0195 21.5005C13.0684 21.0942 14.0176 20.145 14.4238 19.0957C14.6328 18.5537 14.7031 18.1133 14.7031 17.3398C14.7031 16.7305 14.6914 16.6279 14.6094 16.4937C14.3359 16.0459 13.666 16.0405 13.3965 16.4839C13.3262 16.6011 13.3047 16.7583 13.2852 17.3403C13.2676 17.8135 13.2324 18.1396 13.1797 18.311C12.8867 19.2632 12.1641 19.978 11.2109 20.2617C10.834 20.374 10.1348 20.374 9.75781 20.2617C8.80469 19.978 8.08203 19.2632 7.78906 18.311C7.73633 18.1396 7.70117 17.8135 7.68359 17.3403C7.66406 16.7583 7.64258 16.6011 7.57227 16.4839C7.44727 16.2793 7.21875 16.1543 6.96875 16.1543C6.83984 16.1543 6.69727 16.1909 6.60547 16.2476Z" fill="#000000" fill-opacity="1.000000" fill-rule="evenodd"/>
	</g>
</svg>
