<svg width="21.880859" height="24.833496" viewBox="0 0 21.8809 24.8335" fill="none" xmlns="http://www.w3.org/2000/svg" xmlns:xlink="http://www.w3.org/1999/xlink">
	<desc>
			Created with Pixso.
	</desc>
	<defs/>
	<path id="Vector" d="M10.9414 12.4165C7.71875 12.4165 5.10742 9.80518 5.10742 6.5835C5.10742 3.36182 7.71875 0.75 10.9414 0.75C14.1621 0.75 16.7734 3.36182 16.7734 6.5835C16.7734 9.80518 14.1621 12.4165 10.9414 12.4165Z" stroke="#000000" stroke-opacity="1.000000" stroke-width="1.500000"/>
	<path id="Vector" d="M16.7734 14.75L17.1836 14.75C18.0371 14.75 18.8613 15.062 19.5 15.6265C20.1387 16.1909 20.5508 16.9697 20.6562 17.8159L21.1133 21.4604C21.1543 21.7891 21.125 22.1221 21.0273 22.4385C20.9297 22.7544 20.7656 23.0464 20.5469 23.2944C20.3262 23.5425 20.0586 23.7412 19.7559 23.877C19.4551 24.0132 19.127 24.0835 18.7969 24.0835L3.08398 24.0835C2.75391 24.0835 2.42578 24.0132 2.125 23.877C1.82227 23.7412 1.55273 23.5425 1.33398 23.2944C1.11523 23.0464 0.951172 22.7544 0.853516 22.4385C0.755859 22.1221 0.726562 21.7891 0.767578 21.4604L1.22266 17.8159C1.32812 16.9692 1.74023 16.1904 2.38086 15.6255C3.01953 15.061 3.84375 14.7495 4.69727 14.75L5.10742 14.75" stroke="#000000" stroke-opacity="1.000000" stroke-width="1.500000" stroke-linejoin="round" stroke-linecap="round"/>
</svg>
