<svg width="24.000000" height="20.000000" viewBox="0 0 24 20" fill="none" xmlns="http://www.w3.org/2000/svg" xmlns:xlink="http://www.w3.org/1999/xlink">
	<desc>
			Created with Pixso.
	</desc>
	<defs/>
	<path id="filter 1 (Traced)" d="M15.2578 0.0731201C14.4004 0.288086 13.6094 0.949951 13.2031 1.79297C13.084 2.04395 12.9844 2.29065 12.9844 2.34119C12.9844 2.43079 12.8203 2.43347 6.76367 2.44604C0.960938 2.45801 0.53125 2.4646 0.392578 2.54358C0.162109 2.67542 0.0332031 2.90063 0.0117188 3.21216C-0.0078125 3.53137 0.105469 3.75403 0.376953 3.92029C0.541016 4.01965 0.59375 4.02075 6.74414 4.04492L12.9453 4.06934L13.0742 4.41394C13.4316 5.37109 14.293 6.16382 15.2363 6.40601C15.6348 6.50781 16.375 6.50867 16.748 6.40796C17.7949 6.12561 18.6504 5.29041 18.9805 4.22791L19.0371 4.04492L21.2031 4.04492C23.3574 4.04492 23.3711 4.04431 23.5762 3.93518C23.8809 3.77258 23.9746 3.61121 23.9746 3.24841C23.9746 3.01086 23.9512 2.91309 23.8652 2.7876C23.6348 2.45203 23.6992 2.46045 21.25 2.44495L19.041 2.43091L18.9434 2.15137C18.5762 1.10364 17.6191 0.245972 16.5898 0.0427246C16.2461 -0.0251465 15.5898 -0.0101318 15.2578 0.0731201ZM16.3828 1.63184C17.1094 1.82849 17.5801 2.45459 17.582 3.22375C17.5859 4.01672 17.1406 4.63611 16.4082 4.85828C16.0957 4.953 15.6523 4.9209 15.3496 4.78137C15.0527 4.64453 14.6562 4.23621 14.5254 3.93274C14.373 3.57922 14.3672 2.90613 14.5156 2.57239C14.7168 2.11584 15.1777 1.72375 15.6445 1.60913C15.9102 1.5437 16.0781 1.54883 16.3828 1.63184ZM7.46875 6.78247C6.40234 6.9679 5.40625 7.85095 5.05469 8.91968L4.95703 9.21765L2.74414 9.21765L0.53125 9.21765L0.373047 9.32874C-0.125 9.67859 -0.125 10.3185 0.373047 10.6683L0.53125 10.7793L2.74414 10.7793L4.95703 10.7793L5.05469 11.0773C5.54297 12.5659 7.10547 13.5054 8.58203 13.1987C9.68555 12.9695 10.5723 12.183 10.9492 11.1019L11.0527 10.8037L17.2871 10.7793C23.5234 10.7549 23.5234 10.7549 23.6543 10.6528C24.1152 10.2979 24.1152 9.69922 23.6543 9.34424C23.5234 9.24207 23.5234 9.24207 17.2871 9.21765L11.0527 9.19336L10.9492 8.89502C10.4336 7.41504 8.96484 6.52258 7.46875 6.78247ZM8.67773 8.47595C9.00391 8.64075 9.25 8.88623 9.42578 9.2262C9.57617 9.51611 9.58594 9.56299 9.58594 9.99854C9.58594 10.434 9.57617 10.4808 9.42578 10.7708C9.13281 11.3323 8.70312 11.615 8.08984 11.6473C7.61719 11.6721 7.2793 11.553 6.95117 11.2451C6.22852 10.5687 6.22852 9.42822 6.95117 8.75171C7.28516 8.43872 7.57422 8.33533 8.06445 8.35352C8.35742 8.36438 8.51953 8.39661 8.67773 8.47595ZM15.1875 13.6036C14.2539 13.8662 13.4258 14.642 13.0742 15.583L12.9453 15.9276L6.7168 15.952L0.488281 15.9764L0.314453 16.1132C0.0722656 16.3063 -0.0117188 16.499 0.0117188 16.8063C0.0351562 17.0977 0.169922 17.3265 0.392578 17.4534C0.53125 17.5323 0.960938 17.5389 6.76367 17.5509C12.8203 17.5635 12.9844 17.5663 12.9844 17.6558C12.9844 17.7064 13.084 17.9531 13.2031 18.2041C13.6152 19.0579 14.4043 19.7137 15.2812 19.9269C15.625 20.0107 16.2324 20.0248 16.5762 19.9569C17.6074 19.7535 18.5215 18.9502 18.916 17.9036L19.043 17.566L21.252 17.5521C23.2422 17.5394 23.4746 17.5298 23.6074 17.4534C23.8301 17.3265 23.9648 17.0977 23.9883 16.8063C24.0137 16.4991 23.9277 16.3063 23.6855 16.1132L23.5137 15.9764L21.2754 15.9629L19.0371 15.9493L18.9805 15.7677C18.6504 14.7067 17.793 13.8713 16.748 13.589C16.3613 13.4847 15.584 13.4921 15.1875 13.6036ZM16.4316 15.1451C17.1426 15.3649 17.5859 15.9915 17.582 16.7733C17.582 17.1498 17.4941 17.429 17.2812 17.745C16.9824 18.1859 16.332 18.4852 15.8203 18.4185C15.2812 18.3484 14.7422 17.9385 14.5156 17.4247C14.3691 17.0924 14.3711 16.4154 14.5215 16.0741C14.6387 15.8075 14.9316 15.4691 15.1855 15.3047C15.5273 15.0834 16.0254 15.0195 16.4316 15.1451Z" fill="#000000" fill-opacity="1.000000" fill-rule="evenodd"/>
</svg>
