<svg width="12.251953" height="12.252686" viewBox="0 0 12.252 12.2527" fill="none" xmlns="http://www.w3.org/2000/svg" xmlns:xlink="http://www.w3.org/1999/xlink">
	<desc>
			Created with Pixso.
	</desc>
	<defs/>
	<path id="Vector" d="M0.257812 0.25708C0.337891 0.175537 0.435547 0.110962 0.541016 0.0667725C0.648438 0.0227051 0.761719 0 0.876953 0C0.992188 0 1.10547 0.0227051 1.21289 0.0667725C1.31836 0.110962 1.41406 0.175537 1.49609 0.25708L6.12695 4.88928L10.7578 0.25708C10.8379 0.175659 10.9355 0.111206 11.041 0.0671387C11.1484 0.0230713 11.2617 0.000488281 11.377 0.000488281C11.4922 0.000488281 11.6055 0.0230713 11.7109 0.0671387C11.8184 0.111206 11.9141 0.175659 11.9961 0.25708C12.0781 0.338379 12.1426 0.435059 12.1855 0.54126C12.2305 0.647583 12.252 0.761475 12.252 0.876587C12.252 0.991577 12.2305 1.10559 12.1855 1.21179C12.1426 1.31812 12.0781 1.41467 11.9961 1.49609L7.36328 6.12659L11.9961 10.7571C12.0781 10.8384 12.1426 10.9349 12.1855 11.0413C12.2305 11.1476 12.252 11.2615 12.252 11.3766C12.252 11.4916 12.2305 11.6056 12.1855 11.7118C12.1426 11.8181 12.0781 11.9147 11.9961 11.9961C11.9141 12.0774 11.8184 12.142 11.7109 12.186C11.6055 12.23 11.4922 12.2527 11.377 12.2527C11.2617 12.2527 11.1484 12.23 11.041 12.186C10.9355 12.142 10.8379 12.0774 10.7578 11.9961L6.12695 7.36377L1.49609 11.9961C1.41406 12.0774 1.31836 12.142 1.21094 12.186C1.10547 12.23 0.992188 12.2527 0.876953 12.2527C0.761719 12.2527 0.648438 12.23 0.541016 12.186C0.435547 12.142 0.337891 12.0774 0.257812 11.9961C0.175781 11.9147 0.111328 11.8181 0.0664062 11.7118C0.0234375 11.6056 0 11.4916 0 11.3766C0 11.2615 0.0234375 11.1476 0.0664062 11.0413C0.111328 10.9349 0.175781 10.8384 0.257812 10.7571L4.88867 6.12659L0.257812 1.49609C0.175781 1.41479 0.111328 1.31824 0.0664062 1.21191C0.0234375 1.10559 0 0.991699 0 0.876587C0 0.761475 0.0234375 0.647461 0.0664062 0.54126C0.111328 0.434937 0.175781 0.338379 0.257812 0.25708Z" fill="#000000" fill-opacity="1.000000" fill-rule="nonzero"/>
</svg>
