<svg width="32.000000" height="32.000000" viewBox="0 0 32 32" fill="none" xmlns="http://www.w3.org/2000/svg" xmlns:xlink="http://www.w3.org/1999/xlink">
	<desc>
			Created with Pixso.
	</desc>
	<defs/>
	<path id="Vector" d="M16 30C12.28 30 8.72 28.52 6.1 25.89C3.47 23.27 2 19.71 2 16C2 12.28 3.47 8.72 6.1 6.1C8.72 3.47 12.28 2 16 2C19.71 2 23.27 3.47 25.89 6.1C28.52 8.72 30 12.28 30 16C30 19.71 28.52 23.27 25.89 25.89C23.27 28.52 19.71 30 16 30ZM16 32C20.24 32 24.31 30.31 27.31 27.31C30.31 24.31 32 20.24 32 16C32 11.75 30.31 7.68 27.31 4.68C24.31 1.68 20.24 0 16 0C11.75 0 7.68 1.68 4.68 4.68C1.68 7.68 0 11.75 0 16C0 20.24 1.68 24.31 4.68 27.31C7.68 30.31 11.75 32 16 32Z" fill="#000000" fill-opacity="1.000000" fill-rule="nonzero"/>
	<path id="Vector" d="M9.29 9.29C9.38 9.19 9.49 9.12 9.61 9.07C9.73 9.02 9.86 8.99 10 8.99C10.13 8.99 10.26 9.02 10.38 9.07C10.5 9.12 10.61 9.19 10.7 9.29L16 14.58L21.29 9.29C21.38 9.19 21.49 9.12 21.61 9.07C21.73 9.02 21.86 8.99 22 8.99C22.13 8.99 22.26 9.02 22.38 9.07C22.5 9.12 22.61 9.19 22.7 9.29C22.8 9.38 22.87 9.49 22.92 9.61C22.97 9.73 23 9.86 23 10C23 10.13 22.97 10.26 22.92 10.38C22.87 10.5 22.8 10.61 22.7 10.7L17.41 16L22.7 21.29C22.8 21.38 22.87 21.49 22.92 21.61C22.97 21.73 23 21.86 23 22C23 22.13 22.97 22.26 22.92 22.38C22.87 22.5 22.8 22.61 22.7 22.7C22.61 22.8 22.5 22.87 22.38 22.92C22.26 22.97 22.13 23 22 23C21.86 23 21.73 22.97 21.61 22.92C21.49 22.87 21.38 22.8 21.29 22.7L16 17.41L10.7 22.7C10.61 22.8 10.5 22.87 10.38 22.92C10.26 22.97 10.13 23 10 23C9.86 23 9.73 22.97 9.61 22.92C9.49 22.87 9.38 22.8 9.29 22.7C9.19 22.61 9.12 22.5 9.07 22.38C9.02 22.26 8.99 22.13 8.99 22C8.99 21.86 9.02 21.73 9.07 21.61C9.12 21.49 9.19 21.38 9.29 21.29L14.58 16L9.29 10.7C9.19 10.61 9.12 10.5 9.07 10.38C9.02 10.26 8.99 10.13 8.99 10C8.99 9.86 9.02 9.73 9.07 9.61C9.12 9.49 9.19 9.38 9.29 9.29Z" fill="#000000" fill-opacity="1.000000" fill-rule="nonzero"/>
</svg>
