<svg width="16.000000" height="16.000000" viewBox="0 0 16 16" fill="none" xmlns="http://www.w3.org/2000/svg" xmlns:xlink="http://www.w3.org/1999/xlink">
	<desc>
			Created with Pixso.
	</desc>
	<defs/>
	<path id="Vector" d="M12.627 11.5127L16 14.8857L14.8857 16L11.5127 12.6265C10.2578 13.6323 8.69727 14.1797 7.08887 14.1772C3.17578 14.1772 0 11.0015 0 7.08887C0 3.17578 3.17578 0 7.08887 0C11.002 0 14.1777 3.17578 14.1777 7.08887C14.1797 8.69727 13.6328 10.2578 12.627 11.5127ZM11.0469 10.9282C12.0459 9.90039 12.6045 8.52246 12.6025 7.08887C12.6025 4.04199 10.1348 1.5752 7.08887 1.5752C4.04199 1.5752 1.5752 4.04199 1.5752 7.08887C1.5752 10.1343 4.04199 12.6021 7.08887 12.6021C8.52246 12.6045 9.90039 12.0464 10.9287 11.0464L11.0469 10.9282Z" fill="#FFFFFF" fill-opacity="1.000000" fill-rule="nonzero"/>
</svg>
